<svg width="36" height="36" viewBox="0 0 36 36" fill="none" xmlns="http://www.w3.org/2000/svg">
<path d="M15 30.75C16.2426 30.75 17.25 29.7426 17.25 28.5C17.25 27.2574 16.2426 26.25 15 26.25C13.7574 26.25 12.75 27.2574 12.75 28.5C12.75 29.7426 13.7574 30.75 15 30.75Z" stroke="black"/>
<path d="M25.5 30.75C26.7426 30.75 27.75 29.7426 27.75 28.5C27.75 27.2574 26.7426 26.25 25.5 26.25C24.2574 26.25 23.25 27.2574 23.25 28.5C23.25 29.7426 24.2574 30.75 25.5 30.75Z" stroke="black"/>
<path d="M5.25 6H8.25L13.506 22.5H25.5" stroke="black" stroke-linecap="round" stroke-linejoin="round"/>
<path d="M12.3362 18.75L9.4502 9.75H28.2107C28.3296 9.74985 28.4468 9.77798 28.5527 9.83205C28.6586 9.88613 28.7501 9.96461 28.8197 10.061C28.8893 10.1574 28.935 10.269 28.953 10.3865C28.971 10.5041 28.9608 10.6242 28.9232 10.737L26.4227 18.237C26.373 18.3863 26.2776 18.5161 26.15 18.6082C26.0224 18.7003 25.869 18.7499 25.7117 18.75H12.3362Z" stroke="black" stroke-linecap="round" stroke-linejoin="round"/>
</svg>
