<svg width="71" height="70" viewBox="0 0 71 70" fill="none" xmlns="http://www.w3.org/2000/svg">
<rect x="0.5" width="70" height="70" rx="35" fill="#E0F6FF"/>
<path d="M30.0166 34.9994L44.2986 49.8394C44.5559 50.1003 44.7002 50.452 44.7002 50.8184C44.7002 51.1848 44.5559 51.5365 44.2986 51.7974C44.172 51.9259 44.0212 52.0279 43.8548 52.0976C43.6885 52.1673 43.5099 52.2031 43.3296 52.2031C43.1492 52.2031 42.9707 52.1673 42.8043 52.0976C42.638 52.0279 42.4871 51.9259 42.3606 51.7974L26.7006 35.9814C26.4432 35.7205 26.2989 35.3688 26.2989 35.0024C26.2989 34.636 26.4432 34.2843 26.7006 34.0234L42.3606 18.2074C42.4871 18.0789 42.638 17.9768 42.8043 17.9072C42.9707 17.8375 43.1492 17.8017 43.3296 17.8017C43.5099 17.8017 43.6885 17.8375 43.8548 17.9072C44.0212 17.9768 44.172 18.0789 44.2986 18.2074C44.5559 18.4683 44.7002 18.82 44.7002 19.1864C44.7002 19.5528 44.5559 19.9045 44.2986 20.1654L30.0166 34.9994Z" fill="black"/>
</svg>
