<svg width="36" height="36" viewBox="0 0 36 36" fill="none" xmlns="http://www.w3.org/2000/svg">
<path fill-rule="evenodd" clip-rule="evenodd" d="M22.1276 2.871C21.2872 4.02768 20.7775 5.39134 20.6533 6.8157C20.5291 8.24006 20.795 9.67137 21.4224 10.9561C22.0499 12.2408 23.0153 13.3305 24.2151 14.1081C25.4148 14.8858 26.8037 15.3222 28.2326 15.3705V15.387C28.2551 15.684 28.2776 15.9885 28.3076 16.2825C28.6631 19.653 29.4731 21.9675 30.2516 23.487C30.7691 24.4995 31.2776 25.1715 31.6376 25.578C31.7957 25.7572 31.9661 25.9251 32.1476 26.0805L32.1626 26.0895C32.3551 26.2292 32.4984 26.4263 32.5718 26.6524C32.6453 26.8786 32.6452 27.1223 32.5716 27.3484C32.4979 27.5745 32.3545 27.7715 32.1619 27.911C31.9693 28.0506 31.7375 28.1255 31.4996 28.125H4.49965C4.26235 28.1247 4.03122 28.0494 3.8393 27.9098C3.64739 27.7703 3.50452 27.5736 3.43113 27.3479C3.35774 27.1223 3.35759 26.8792 3.43069 26.6534C3.50379 26.4277 3.64641 26.2308 3.83815 26.091L3.85015 26.0805L3.94615 25.9995C4.03615 25.9185 4.18165 25.782 4.36165 25.578C4.72165 25.173 5.23015 24.501 5.74765 23.4885C6.78265 21.465 7.87465 18.045 7.87465 12.6C7.87465 9.7785 8.92465 7.059 10.8146 5.043C12.7076 3.024 15.2906 1.875 17.9996 1.875C18.5736 1.875 19.1401 1.9255 19.6991 2.0265C20.0561 2.091 21.2261 2.4555 22.1276 2.871Z" fill="black"/>
<path fill-rule="evenodd" clip-rule="evenodd" d="M22.8751 7.5C22.8751 6.00816 23.4677 4.57742 24.5226 3.52252C25.5775 2.46763 27.0082 1.875 28.5001 1.875C29.9919 1.875 31.4226 2.46763 32.4775 3.52252C33.5324 4.57742 34.1251 6.00816 34.1251 7.5C34.1251 8.99184 33.5324 10.4226 32.4775 11.4775C31.4226 12.5324 29.9919 13.125 28.5001 13.125C27.0082 13.125 25.5775 12.5324 24.5226 11.4775C23.4677 10.4226 22.8751 8.99184 22.8751 7.5ZM14.8411 30.5265C14.9689 30.4524 15.1101 30.4042 15.2565 30.3847C15.403 30.3652 15.5518 30.3748 15.6946 30.4128C15.8374 30.4508 15.9713 30.5166 16.0886 30.6064C16.206 30.6961 16.3045 30.8081 16.3786 30.936C16.5434 31.22 16.78 31.4556 17.0645 31.6195C17.3491 31.7833 17.6717 31.8695 18.0001 31.8695C18.3284 31.8695 18.651 31.7833 18.9356 31.6195C19.2201 31.4556 19.4567 31.22 19.6216 30.936C19.6957 30.8082 19.7943 30.6962 19.9118 30.6064C20.0292 30.5167 20.1632 30.451 20.306 30.413C20.4489 30.3751 20.5978 30.3656 20.7443 30.3852C20.8908 30.4048 21.032 30.4531 21.1598 30.5272C21.2876 30.6014 21.3996 30.7 21.4894 30.8175C21.5791 30.9349 21.6448 31.0689 21.6828 31.2117C21.7207 31.3546 21.7302 31.5035 21.7106 31.65C21.691 31.7965 21.6427 31.9377 21.5686 32.0655C21.206 32.6908 20.6855 33.2098 20.0592 33.5706C19.4329 33.9314 18.7228 34.1213 18.0001 34.1213C17.2773 34.1213 16.5672 33.9314 15.9409 33.5706C15.3146 33.2098 14.7941 32.6908 14.4316 32.0655C14.3572 31.9376 14.3089 31.7963 14.2893 31.6497C14.2696 31.5031 14.2791 31.354 14.3171 31.2111C14.3552 31.0681 14.421 30.9341 14.5109 30.8166C14.6008 30.6991 14.713 30.6006 14.8411 30.5265Z" fill="black"/>
</svg>
