<svg width="175" height="60" viewBox="0 0 175 60" fill="none" xmlns="http://www.w3.org/2000/svg">
<path d="M35.4412 37.744C35.3559 37.744 35.2493 37.744 35.1213 37.744C34.9933 37.744 34.8653 37.7227 34.7373 37.68H34.6093C34.4813 37.5947 34.4386 37.4667 34.4813 37.296C34.5239 37.1253 34.4386 37.04 34.2253 37.04C34.0546 37.04 33.9479 37.104 33.9053 37.232C33.8626 37.4027 33.7559 37.488 33.5853 37.488H33.3293L33.2653 37.424C33.0946 37.3813 32.9453 37.2747 32.8173 37.104C32.6893 36.9333 32.5613 36.8907 32.4333 36.976C32.2626 37.104 32.0706 37.168 31.8573 37.168C31.5586 37.168 31.2813 37.0613 31.0253 36.848C30.8119 36.6347 30.5986 36.4427 30.3853 36.272C30.3426 36.2293 30.2786 36.2293 30.1933 36.272C30.1079 36.3573 30.0226 36.3787 29.9373 36.336C29.8946 36.336 29.8519 36.3147 29.8093 36.272L29.3613 36.08C29.3186 36.08 29.2973 36.0587 29.2973 36.016C29.2973 36.016 29.2759 36.016 29.2333 36.016C28.9346 35.888 28.6146 35.696 28.2733 35.44C27.9746 35.184 27.6333 35.0347 27.2493 34.992C27.2066 34.992 27.1853 34.9707 27.1853 34.928C27.1853 34.928 27.1639 34.928 27.1213 34.928L25.9053 34.224C25.9053 34.224 25.8839 34.2027 25.8413 34.16C25.8413 34.16 25.8199 34.16 25.7773 34.16C25.6919 33.8613 25.5853 33.6907 25.4573 33.648C25.3719 33.648 25.1586 33.6267 24.8173 33.584L24.7533 33.52L23.8573 33.008C23.8573 32.9653 23.8359 32.944 23.7933 32.944C23.7933 32.944 23.7719 32.9013 23.7293 32.816C23.6866 32.7733 23.6439 32.7093 23.6013 32.624C22.5346 32.24 21.6173 31.6427 20.8493 30.832C20.7639 30.7467 20.6359 30.6827 20.4653 30.64C20.3373 30.5973 20.2306 30.5333 20.1453 30.448L20.0813 30.384L18.8013 29.424C18.4599 29.5093 18.0333 29.5947 17.5213 29.68C17.0519 29.7227 16.7319 29.7227 16.5613 29.68H16.4973C16.4973 29.68 16.3906 29.68 16.1772 29.68C16.0919 29.7653 16.0493 29.808 16.0493 29.808H15.6653C15.5373 29.808 15.3879 29.8293 15.2173 29.872C15.0466 29.9147 14.8973 29.936 14.7693 29.936C14.7266 29.936 14.7053 29.936 14.7053 29.936C14.7053 29.8933 14.6839 29.872 14.6413 29.872C14.5986 29.872 14.5346 29.8933 14.4493 29.936C14.4066 29.9787 14.3426 30 14.2573 30C14.2146 30 14.1719 29.9787 14.1293 29.936C14.1293 29.8507 14.0866 29.808 14.0013 29.808C13.9586 29.808 13.9159 29.8507 13.8733 29.936C13.8306 29.9787 13.7666 29.9787 13.6813 29.936H13.4893C13.4466 29.936 13.4039 29.936 13.3613 29.936C13.3186 29.8933 13.2759 29.8933 13.2333 29.936C13.2333 29.936 13.2119 29.9573 13.1693 30C13.1693 30 13.1479 30 13.1053 30C13.1053 30 13.0626 29.9573 12.9773 29.872C12.8919 29.872 12.7853 29.9147 12.6573 30C12.5719 30.0427 12.4866 30.0427 12.4013 30H12.2733C12.2733 29.9147 12.2306 29.872 12.1453 29.872V29.936H11.5693C11.2706 29.8933 10.9933 29.808 10.7373 29.68C10.5239 29.5093 10.3106 29.424 10.0973 29.424C10.0546 29.424 10.0119 29.4453 9.96925 29.488C9.96925 29.488 9.94792 29.488 9.90525 29.488C9.86258 29.488 9.81992 29.488 9.77725 29.488C9.77725 29.4453 9.75592 29.424 9.71325 29.424C9.62792 29.424 9.58525 29.4453 9.58525 29.488C9.49992 29.4027 9.45725 29.36 9.45725 29.36L8.94525 29.232C8.90258 29.1467 8.68925 29.1253 8.30525 29.168C7.92125 29.168 7.68658 29.168 7.60125 29.168C7.55858 29.0827 7.28125 28.9973 6.76925 28.912C6.29992 28.784 6.02258 28.6987 5.93725 28.656C5.89458 28.656 5.80925 28.6133 5.68125 28.528C5.59592 28.4427 5.53192 28.4213 5.48925 28.464C5.36125 28.464 5.19058 28.3787 4.97725 28.208C4.76392 27.9947 4.59325 27.888 4.46525 27.888C4.42258 27.8027 4.37992 27.7387 4.33725 27.696C4.29458 27.6107 4.27325 27.5467 4.27325 27.504H4.14525C3.37725 26.9067 2.86525 26.3947 2.60925 25.968C2.35325 25.5413 2.24658 25.2 2.28925 24.944V24.752C2.28925 24.5387 2.26792 24.2827 2.22525 23.984C2.22525 23.6853 2.22525 23.4507 2.22525 23.28C2.31058 23.1947 2.37458 23.024 2.41725 22.768C2.50258 22.512 2.54525 22.3627 2.54525 22.32C2.54525 22.2347 2.56658 22.192 2.60925 22.192C2.65192 22.1493 2.67325 22.1067 2.67325 22.064C2.71592 21.9787 2.73725 21.8933 2.73725 21.808C2.73725 21.7227 2.75858 21.6587 2.80125 21.616C2.80125 21.488 2.82258 21.3813 2.86525 21.296C2.90792 21.2107 2.97192 21.1467 3.05725 21.104C3.14258 21.0613 3.20658 21.0187 3.24925 20.976C3.33458 20.8907 3.39858 20.784 3.44125 20.656C3.52658 20.4853 3.59058 20.3573 3.63325 20.272C3.71858 20.1867 3.84658 20.08 4.01725 19.952C4.18792 19.824 4.29458 19.7173 4.33725 19.632C4.42258 19.504 4.55058 19.3973 4.72125 19.312C4.93458 19.2267 5.10525 19.12 5.23325 18.992C5.27592 18.9067 5.42525 18.8427 5.68125 18.8C5.93725 18.7573 6.08658 18.7147 6.12925 18.672C6.21458 18.5867 6.36392 18.544 6.57725 18.544C6.79058 18.544 6.89725 18.6293 6.89725 18.8C6.89725 18.9707 6.74792 19.1413 6.44925 19.312C6.27858 19.5253 6.17192 19.6747 6.12925 19.76C6.08658 19.8027 5.95858 19.9307 5.74525 20.144C5.74525 20.1867 5.72392 20.3147 5.68125 20.528C5.63858 20.7413 5.61725 20.8907 5.61725 20.976C5.53192 21.0187 5.48925 21.0613 5.48925 21.104C5.48925 21.1467 5.46792 21.2107 5.42525 21.296C5.42525 21.3813 5.36125 21.488 5.23325 21.616C5.19058 21.6587 5.14792 21.744 5.10525 21.872C5.10525 22 5.08392 22.1067 5.04125 22.192C4.99858 22.192 4.93458 22.2347 4.84925 22.32C4.72125 22.5333 4.67858 22.8107 4.72125 23.152C4.76392 23.4507 4.76392 23.7707 4.72125 24.112C4.67858 24.112 4.67858 24.2613 4.72125 24.56C4.80658 24.816 4.84925 24.9653 4.84925 25.008C4.84925 25.0507 4.87058 25.1147 4.91325 25.2C4.95592 25.2427 4.97725 25.3067 4.97725 25.392C4.93458 25.4347 4.91325 25.4987 4.91325 25.584C4.91325 25.6267 4.95592 25.6907 5.04125 25.776C5.38258 26.16 5.63858 26.4373 5.80925 26.608C6.02258 26.736 6.15058 26.8213 6.19325 26.864C6.70525 27.248 7.08925 27.5253 7.34525 27.696C7.60125 27.8667 7.87858 27.9947 8.17725 28.08C8.47592 28.1227 8.92392 28.2293 9.52125 28.4C9.86258 28.4853 10.2039 28.592 10.5453 28.72C10.8866 28.8053 11.2279 28.848 11.5693 28.848C11.6119 28.848 11.6333 28.8693 11.6333 28.912C11.6333 28.9547 11.6546 28.976 11.6973 28.976C11.8679 28.976 12.0173 28.9973 12.1453 29.04C12.3159 29.04 12.4866 29.04 12.6573 29.04C12.6999 29.04 12.7426 29.04 12.7853 29.04C12.8279 28.9973 12.8706 28.976 12.9133 28.976C12.9559 28.976 13.0626 29.0187 13.2333 29.104C13.5746 29.104 13.9159 29.104 14.2573 29.104C14.5986 29.104 14.9186 29.0827 15.2173 29.04C15.5586 28.9973 15.8999 28.9547 16.2413 28.912C16.5826 28.8267 16.9026 28.7627 17.2013 28.72C17.2866 28.72 17.3933 28.72 17.5213 28.72C17.6493 28.6773 17.7773 28.656 17.9053 28.656L17.4573 28.336C17.4146 28.336 17.3933 28.336 17.3933 28.336C17.3933 28.2933 17.3719 28.272 17.3293 28.272L16.4333 27.504L16.3053 27.376C16.2626 27.376 16.2413 27.3333 16.2413 27.248C16.2413 27.0773 16.1559 26.992 15.9853 26.992C15.8573 26.992 15.7293 26.992 15.6013 26.992C15.4733 26.992 15.4093 26.8853 15.4093 26.672C15.3666 26.672 15.3453 26.672 15.3453 26.672C15.3453 26.6293 15.3453 26.608 15.3453 26.608C15.1746 26.2667 14.9186 25.9893 14.5773 25.776C14.2786 25.5627 13.9799 25.3067 13.6813 25.008L13.6173 24.944C13.5746 24.8587 13.5319 24.816 13.4893 24.816C13.4466 24.7733 13.4039 24.7307 13.3613 24.688C13.3613 24.6453 13.3399 24.624 13.2973 24.624C13.2973 24.624 13.2973 24.6027 13.2973 24.56C13.1266 24.3893 12.9133 24.2187 12.6573 24.048C12.4439 23.8347 12.4013 23.5787 12.5293 23.28C12.4013 23.2373 12.2519 23.216 12.0813 23.216C11.9106 23.216 11.7826 23.152 11.6973 23.024C11.6119 22.8533 11.5266 22.704 11.4413 22.576C11.3559 22.4053 11.2279 22.2773 11.0573 22.192C11.0146 22.192 10.9933 22.192 10.9933 22.192C10.9933 22.1493 10.9719 22.128 10.9293 22.128L9.77725 20.72L9.71325 20.656C9.67058 20.5707 9.60658 20.5067 9.52125 20.464C9.47858 20.4213 9.45725 20.3787 9.45725 20.336C9.41458 19.952 9.20125 19.6533 8.81725 19.44C8.47592 19.2267 8.26258 18.9707 8.17725 18.672C8.13458 18.5013 8.07058 18.352 7.98525 18.224C7.94258 18.0533 7.83592 17.904 7.66525 17.776C7.66525 17.7333 7.51592 17.5627 7.21725 17.264C6.96125 16.9227 6.83325 16.752 6.83325 16.752C6.61992 16.4533 6.51325 16.0907 6.51325 15.664C6.51325 15.0667 6.66258 14.5333 6.96125 14.064C7.25992 13.552 7.55858 13.4027 7.85725 13.616C7.98525 13.7013 8.11325 13.936 8.24125 14.32C8.36925 14.704 8.60392 15.0667 8.94525 15.408V15.472C9.07325 15.7707 9.20125 16.0053 9.32925 16.176C9.45725 16.3467 9.62792 16.6453 9.84125 17.072C9.84125 17.072 9.88392 17.2 9.96925 17.456C10.0973 17.6693 10.1826 17.776 10.2253 17.776C10.3106 17.9893 10.3746 18.16 10.4173 18.288C10.4599 18.416 10.6306 18.5013 10.9293 18.544C10.9719 18.544 10.9933 18.5653 10.9933 18.608C10.9933 18.608 11.0146 18.608 11.0573 18.608C11.6119 19.504 12.3586 20.4427 13.2973 21.424C13.2973 21.4667 13.2973 21.488 13.2973 21.488C13.3399 21.488 13.3613 21.5093 13.3613 21.552C13.5319 21.6373 13.5746 21.7867 13.4893 22C13.4039 22.1707 13.4466 22.2773 13.6173 22.32C13.7026 22.3627 13.7879 22.3413 13.8733 22.256C13.9586 22.1707 14.0226 22.1707 14.0653 22.256C14.3639 22.5973 14.6413 22.9173 14.8973 23.216C15.1533 23.5147 15.4519 23.792 15.7933 24.048L15.8573 24.112C16.4973 24.7093 17.1586 25.3067 17.8413 25.904L17.9053 25.968C17.9906 26.096 18.0759 26.2027 18.1613 26.288C18.2466 26.3307 18.3106 26.416 18.3533 26.544C18.3959 26.7147 18.5026 26.8213 18.6733 26.864C18.8866 26.864 19.0573 26.928 19.1853 27.056C19.2279 27.056 19.2493 27.0773 19.2493 27.12C19.4199 27.248 19.5906 27.376 19.7613 27.504C19.9746 27.632 20.1666 27.7813 20.3373 27.952L20.6573 27.824C21.2973 27.568 21.9799 27.312 22.7053 27.056C23.4733 26.8 24.2626 26.48 25.0733 26.096C25.1586 26.0533 25.2013 26.16 25.2013 26.416C25.2439 26.6293 25.3079 26.7147 25.3933 26.672C25.4786 26.6293 25.5853 26.4587 25.7133 26.16C25.8413 25.8613 25.9479 25.6907 26.0333 25.648C26.2039 25.4347 26.5026 25.2427 26.9293 25.072C27.3986 24.9013 27.5906 24.8587 27.5053 24.944C28.3586 24.4747 29.1906 23.9627 30.0013 23.408C30.8546 22.8533 31.6013 22.256 32.2413 21.616L32.7533 20.976C32.9239 20.8053 33.0519 20.8053 33.1373 20.976C33.0946 21.0613 33.0732 21.232 33.0732 21.488C33.3293 21.4453 33.4786 21.2533 33.5213 20.912C33.5639 20.528 33.6066 20.1867 33.6493 19.888C33.8626 19.632 34.0759 19.3973 34.2893 19.184C34.5026 18.928 34.6946 18.6507 34.8653 18.352C34.9079 18.3093 34.9719 18.288 35.0573 18.288C35.1853 18.288 35.3133 18.3093 35.4412 18.352C35.6119 18.3947 35.7399 18.3307 35.8253 18.16C35.7399 17.9467 35.6546 17.7973 35.5693 17.712C35.5266 17.584 35.5479 17.4133 35.6333 17.2H35.6973L35.8893 16.88C36.1026 16.5387 36.3373 16.2827 36.5933 16.112C36.8493 15.8987 36.9986 15.5147 37.0413 14.96H37.1053C37.9586 13.4667 38.3853 11.8667 38.3853 10.16C38.3853 8.19733 37.7666 6.42667 36.5293 4.848C35.2919 3.26933 33.3506 2.352 30.7053 2.096C30.6626 2.05333 30.4066 1.98933 29.9373 1.904C29.5106 1.776 29.2546 1.712 29.1693 1.712C28.6573 1.66933 28.3799 1.69067 28.3373 1.776C28.2946 1.81867 28.0599 1.79733 27.6333 1.712C27.2066 1.49866 26.8226 1.41333 26.4813 1.456C26.1826 1.456 25.9906 1.43467 25.9053 1.392L24.4333 1.584C22.9826 1.54133 21.9373 1.62667 21.2973 1.84C20.6573 2.05333 20.0599 2.20266 19.5053 2.288L17.0733 2.672C16.9026 2.62933 16.7746 2.62933 16.6893 2.672C16.6039 2.672 16.5186 2.71467 16.4333 2.8L14.9613 3.248H14.8973C14.8119 3.29067 14.6626 3.33333 14.4493 3.376C14.2359 3.376 14.0866 3.44 14.0013 3.568C13.7026 3.61067 13.3826 3.71733 13.0413 3.888H12.9773C12.8066 4.18667 12.5293 4.29333 12.1453 4.208L11.2493 4.656C11.1639 4.69867 11.0359 4.656 10.8653 4.528C10.7373 4.35733 10.6306 4.22933 10.5453 4.144C10.6733 4.31467 10.7373 4.48533 10.7373 4.656C10.7373 4.95466 10.5666 5.104 10.2253 5.104C10.0546 5.18933 9.86258 5.296 9.64925 5.424C9.43592 5.552 9.22258 5.65867 9.00925 5.744C8.88125 5.82933 8.62525 5.872 8.24125 5.872C8.11325 5.872 7.96392 5.872 7.79325 5.872C7.66525 5.872 7.55858 5.91467 7.47325 6V6.064C7.47325 6.10667 7.49458 6.17067 7.53725 6.256C7.57992 6.34133 7.60125 6.42667 7.60125 6.512C7.60125 6.68267 7.47325 6.832 7.21725 6.96C7.00392 7.088 6.85458 7.19467 6.76925 7.28H6.70525C6.66258 7.32267 6.53458 7.30133 6.32125 7.216C6.10792 7.088 5.97992 7.04533 5.93725 7.088V7.152C5.93725 7.23733 5.97992 7.344 6.06525 7.472C6.15058 7.6 6.17192 7.68533 6.12925 7.728H6.06525C5.89458 7.856 5.72392 7.984 5.55325 8.112C5.38258 8.24 5.23325 8.38933 5.10525 8.56C4.93458 8.688 4.76392 8.83733 4.59325 9.008C4.46525 9.136 4.29458 9.24267 4.08125 9.328C4.03858 9.328 3.95325 9.24267 3.82525 9.072C3.69725 8.90133 3.61192 8.85866 3.56925 8.944C3.44125 9.072 3.37725 9.30667 3.37725 9.648C3.41992 9.98933 3.39858 10.224 3.31325 10.352C3.22792 10.5227 3.07858 10.6293 2.86525 10.672C2.65192 10.672 2.50258 10.7573 2.41725 10.928V10.992C2.41725 11.1627 2.45992 11.3547 2.54525 11.568C2.63058 11.7813 2.67325 11.952 2.67325 12.08C2.63058 12.2933 2.60925 12.5067 2.60925 12.72C2.60925 12.8907 2.60925 13.0827 2.60925 13.296C2.60925 13.424 2.60925 13.5307 2.60925 13.616C2.60925 13.7013 2.65192 13.808 2.73725 13.936C2.90792 14.448 3.24925 14.9387 3.76125 15.408C4.01725 15.5787 4.14525 15.7707 4.14525 15.984C4.14525 16.112 4.05992 16.176 3.88925 16.176C3.63325 16.176 3.35592 16.0053 3.05725 15.664C3.01458 15.6213 2.86525 15.5147 2.60925 15.344C2.39592 15.1733 2.24658 15.0453 2.16125 14.96C1.26525 14.1067 0.710583 13.2533 0.49725 12.4C0.283917 11.5467 0.219917 10.7787 0.30525 10.096C0.347917 9.88267 0.43325 9.73333 0.56125 9.648C0.68925 9.56267 0.795917 9.43467 0.88125 9.264C0.966583 9.136 0.987917 9.02933 0.94525 8.944C0.902583 8.85866 0.88125 8.752 0.88125 8.624C0.88125 8.41067 1.03058 8.176 1.32925 7.92C1.67058 7.62133 1.99058 7.344 2.28925 7.088C2.63058 6.78933 2.80125 6.59733 2.80125 6.512C3.27058 6.08533 3.78258 5.70133 4.33725 5.36C4.93458 4.976 5.55325 4.63467 6.19325 4.336H6.25725C6.42792 4.16533 6.59858 4.08 6.76925 4.08C6.93992 4.08 7.15325 4.144 7.40925 4.272C7.36658 4.18667 7.30258 4.12267 7.21725 4.08C7.13192 3.99467 7.11058 3.93067 7.15325 3.888C7.87858 3.54667 8.62525 3.248 9.39325 2.992C10.1613 2.69333 10.9293 2.43733 11.6973 2.224C11.9106 2.224 12.0813 2.16 12.2093 2.032L12.5293 1.968C12.8279 2.05333 13.0413 1.98933 13.1693 1.776C13.8519 1.56267 14.8759 1.328 16.2413 1.072C17.6066 0.815998 19.0786 0.623998 20.6573 0.495998C22.4066 0.367999 24.0919 0.303999 25.7133 0.303999C27.7186 0.303999 29.1266 0.367999 29.9373 0.495998C30.6626 0.581332 31.6439 0.815999 32.8813 1.2C34.1186 1.584 35.3773 2.20267 36.6573 3.056C37.9373 3.86667 38.9826 4.976 39.7933 6.384C40.6039 7.74933 40.9026 9.49867 40.6893 11.632C40.6466 12.4 40.4759 13.1467 40.1773 13.872C39.8786 14.5547 39.5586 15.2373 39.2173 15.92C39.0893 16.1333 38.9613 16.368 38.8333 16.624C38.7479 16.88 38.6413 17.1147 38.5133 17.328C38.4706 17.3707 38.4066 17.4347 38.3213 17.52C38.2359 17.5627 38.1719 17.6267 38.1293 17.712L37.6173 18.288C37.4466 18.544 37.2546 18.8 37.0413 19.056C36.8706 19.312 36.6786 19.568 36.4653 19.824L36.2733 20.016C35.5053 20.784 34.7159 21.5947 33.9053 22.448C33.1373 23.2587 32.3053 23.9627 31.4093 24.56V24.624C31.2813 24.6667 31.1533 24.7307 31.0253 24.816C30.9399 24.8587 30.8546 24.9227 30.7693 25.008L30.7053 25.072C30.5773 25.1147 30.4493 25.1573 30.3213 25.2C30.2359 25.2427 30.1293 25.3493 30.0013 25.52C29.8306 25.648 29.6813 25.712 29.5533 25.712C28.9559 26.0107 28.4226 26.2667 27.9533 26.48C27.4839 26.6507 27.0786 26.8213 26.7373 26.992C26.7373 26.992 26.3959 27.1413 25.7133 27.44C25.0733 27.696 24.3266 27.9733 23.4733 28.272C22.6626 28.528 21.9586 28.6987 21.3613 28.784V28.848C21.3613 29.1467 21.4893 29.296 21.7453 29.296C22.0439 29.296 22.2786 29.36 22.4493 29.488L22.5133 29.552C23.4519 30.192 24.4119 30.8107 25.3933 31.408C26.4173 32.0053 27.4626 32.6027 28.5293 33.2C29.9799 33.968 31.3026 34.5227 32.4973 34.864C33.7346 35.2053 34.8226 35.376 35.7613 35.376C37.1266 35.376 38.1719 35.0987 38.8973 34.544C39.6226 33.9893 39.9853 33.328 39.9853 32.56C39.9853 32.176 39.9213 31.8347 39.7933 31.536L39.7293 31.472C39.6866 31.216 39.6226 30.9813 39.5373 30.768C39.4519 30.5547 39.3026 30.384 39.0893 30.256C39.0466 30.2133 39.0253 30.1707 39.0253 30.128C38.8973 29.9573 38.6626 29.8293 38.3213 29.744C38.3213 29.7013 38.2999 29.68 38.2573 29.68C38.1719 29.5947 38.1293 29.5307 38.1293 29.488C38.0866 29.488 38.0653 29.4667 38.0653 29.424C37.8946 29.2107 37.7453 29.04 37.6173 28.912C37.5319 28.784 37.3399 28.7413 37.0413 28.784L36.9773 28.72C36.8919 28.6347 36.8493 28.528 36.8493 28.4C36.8493 28.1867 36.9133 28.0373 37.0413 27.952C37.2119 27.824 37.3826 27.824 37.5533 27.952C37.7239 28.0373 37.8519 28.1227 37.9373 28.208C37.9799 28.208 38.0226 28.2293 38.0653 28.272C38.2359 28.4427 38.3853 28.6133 38.5133 28.784C38.6413 28.9547 38.8546 29.0613 39.1533 29.104C39.1533 29.104 39.1533 29.1253 39.1533 29.168C39.1533 29.168 39.1746 29.168 39.2173 29.168L39.4733 29.424C39.6013 29.7653 39.8359 30.064 40.1773 30.32C40.2199 30.3627 40.2413 30.4053 40.2413 30.448C40.4546 30.6613 40.6039 30.896 40.6893 31.152C40.8173 31.408 40.9239 31.6853 41.0093 31.984V32.304C41.0093 32.56 41.0733 32.816 41.2013 33.072V33.2C41.2013 34.2667 40.8386 35.2267 40.1133 36.08C39.3879 36.976 38.2573 37.5093 36.7213 37.68H36.6573C36.5293 37.5947 36.4013 37.5307 36.2733 37.488C36.1879 37.4453 36.1026 37.424 36.0173 37.424C35.9319 37.424 35.7826 37.5307 35.5693 37.744H35.4412ZM55.3463 29.936C54.7063 29.936 54.2369 29.6587 53.9383 29.104C53.8956 28.976 53.7889 28.784 53.6183 28.528C53.4903 28.272 53.3836 28.0587 53.2983 27.888V27.824C53.2983 27.7387 53.3196 27.6533 53.3623 27.568C53.4049 27.4827 53.4263 27.3973 53.4263 27.312C53.4263 27.1413 53.3836 26.992 53.2983 26.864C53.2129 26.6933 53.1703 26.5227 53.1703 26.352C53.1703 25.7547 53.3409 25.0507 53.6823 24.24C54.0663 23.4293 54.3649 22.7253 54.5783 22.128C54.6636 21.7867 54.8769 21.3813 55.2183 20.912C55.2609 20.8693 55.3036 20.848 55.3463 20.848C55.4316 20.848 55.4956 20.8267 55.5383 20.784C55.6236 20.656 55.6663 20.528 55.6663 20.4C55.7089 20.2293 55.7516 20.08 55.7943 19.952C55.8369 19.8667 55.9223 19.824 56.0503 19.824C56.1783 19.824 56.2636 19.7813 56.3063 19.696C56.3489 19.6107 56.2849 19.568 56.1143 19.568C55.9436 19.568 55.8796 19.5253 55.9223 19.44C56.2209 18.8853 56.5409 18.3093 56.8823 17.712C57.2663 17.1147 57.5223 16.7307 57.6503 16.56C57.6076 16.6027 57.5863 16.56 57.5863 16.432C57.5863 16.2613 57.5436 16.1973 57.4583 16.24C57.4156 16.2827 57.3089 16.3893 57.1383 16.56C56.9676 16.7307 56.8396 16.8587 56.7543 16.944C56.5409 17.1147 56.2849 17.3493 55.9863 17.648C55.6876 17.9467 55.4956 18.1387 55.4103 18.224C55.2823 18.2667 55.1116 18.4587 54.8983 18.8C54.6849 19.0987 54.5356 19.2907 54.4503 19.376C54.2796 19.5467 54.1089 19.632 53.9383 19.632C53.8529 19.632 53.7889 19.5893 53.7463 19.504C53.7463 19.376 53.7889 19.248 53.8743 19.12C53.9596 19.0347 54.0449 18.928 54.1303 18.8C54.2156 18.6293 54.2796 18.5013 54.3223 18.416C54.3649 18.3733 54.4289 18.3093 54.5143 18.224C54.5996 18.096 54.6423 18.0107 54.6423 17.968L55.1543 17.392C55.1969 17.3493 55.2823 17.3493 55.4103 17.392C55.5383 17.392 55.6236 17.3707 55.6663 17.328C55.7089 17.2427 55.6449 17.2 55.4743 17.2C55.3463 17.1573 55.3036 17.1147 55.3463 17.072C55.7303 16.3893 56.2209 15.728 56.8183 15.088C57.4156 14.448 57.8209 14 58.0343 13.744C58.2476 13.488 58.5249 13.296 58.8663 13.168C59.2503 12.9973 59.6129 12.912 59.9543 12.912C60.2529 12.912 60.4663 12.9333 60.5943 12.976C60.8503 13.0613 61.1489 13.1893 61.4903 13.36C61.8743 13.488 62.1089 13.68 62.1943 13.936C62.3223 14.192 62.2369 14.5973 61.9383 15.152C61.6396 15.7067 61.2769 16.2613 60.8503 16.816C60.4663 17.328 60.1463 17.6693 59.8903 17.84C59.8476 17.8827 59.7409 17.904 59.5703 17.904C59.3996 17.904 59.1863 17.904 58.9303 17.904C58.6743 17.8613 58.5249 17.8827 58.4823 17.968C58.3543 18.1387 58.2049 18.3093 58.0343 18.48C57.8636 18.608 57.7356 18.7787 57.6503 18.992C57.6076 19.248 57.5436 19.4613 57.4583 19.632C57.4156 19.8027 57.2876 20.0587 57.0743 20.4C57.0316 20.4853 56.9463 20.6347 56.8183 20.848C56.6903 21.0187 56.6049 21.1467 56.5623 21.232C56.2636 22.1707 55.9863 23.0667 55.7303 23.92C55.5169 24.7307 55.4103 25.4133 55.4103 25.968C55.4103 26.5227 55.5809 27.0133 55.9223 27.44C56.2636 27.824 56.7116 28.016 57.2663 28.016C57.9063 28.016 58.5889 27.8027 59.3143 27.376C59.7409 27.2053 60.2103 26.8853 60.7222 26.416C60.8076 26.3307 60.8716 26.2667 60.9143 26.224C60.9996 26.1387 61.0849 26.0747 61.1703 26.032H61.3623C61.5756 26.032 61.6823 26.1173 61.6823 26.288C61.6823 26.4587 61.5329 26.672 61.2343 26.928C61.0636 27.056 60.8929 27.1627 60.7222 27.248C60.5943 27.3333 60.4449 27.44 60.2743 27.568C60.0609 27.696 59.8263 27.9093 59.5703 28.208C59.3143 28.464 59.0156 28.592 58.6743 28.592H58.6103C58.4823 28.592 58.3756 28.5707 58.2903 28.528C58.2049 28.4427 58.1196 28.4213 58.0343 28.464C57.9063 28.5067 57.9063 28.592 58.0343 28.72C58.2049 28.8053 58.2263 28.8907 58.0983 28.976L57.5863 29.232C56.6476 29.7013 55.9009 29.936 55.3463 29.936ZM44.9783 29.552C44.7223 29.552 44.4023 29.2747 44.0182 28.72C43.7623 28.3787 43.6343 27.8453 43.6343 27.12C43.6343 26.3947 43.7623 25.6053 44.0182 24.752C44.3169 23.8987 44.6796 23.152 45.1063 22.512C45.5756 21.5733 45.8956 20.8693 46.0663 20.4C46.2369 19.9307 46.4076 19.5467 46.5783 19.248C46.5783 19.2053 46.5356 19.1627 46.4503 19.12C46.3649 19.0773 46.3223 18.992 46.3223 18.864C46.0663 18.6933 45.7889 18.4587 45.4903 18.16C45.2343 17.8187 45.2129 17.4987 45.4263 17.2C45.5116 17.1147 45.5756 17.072 45.6183 17.072C45.6609 17.0293 45.6823 17.008 45.6823 17.008V16.88C45.6823 16.7093 45.7463 16.6027 45.8743 16.56C46.0449 16.5173 46.1302 16.4533 46.1302 16.368C46.2156 15.7707 46.7063 15.3227 47.6023 15.024C48.5409 14.7253 49.3729 14.576 50.0983 14.576C50.9089 14.576 51.3142 14.704 51.3142 14.96C51.3142 15.088 51.1649 15.2373 50.8663 15.408C50.7383 15.4507 50.5249 15.6213 50.2263 15.92C49.9276 16.2187 49.6503 16.5813 49.3943 17.008L48.9463 17.776L48.4983 18.352C48.2423 18.8213 47.9649 19.312 47.6663 19.824C47.4103 20.2933 46.9836 21.1893 46.3863 22.512C46.2156 22.9387 46.0663 23.344 45.9383 23.728C45.8529 24.112 45.8529 24.4107 45.9383 24.624C45.9809 24.6667 45.8316 24.816 45.4903 25.072C45.1916 25.328 45.0636 25.4773 45.1063 25.52C45.1489 25.52 45.2129 25.5413 45.2983 25.584C45.3836 25.584 45.4903 25.584 45.6183 25.584C45.8743 25.584 46.1303 25.5413 46.3863 25.456C46.5143 25.4133 46.6209 25.328 46.7063 25.2C46.7916 25.0293 46.8556 24.944 46.8983 24.944C47.1543 24.944 47.4316 24.88 47.7303 24.752C48.1996 24.5387 48.7756 24.112 49.4583 23.472C49.5436 23.3867 49.7143 23.3227 49.9703 23.28C50.2263 23.1947 50.4396 23.0453 50.6103 22.832C51.1223 22.3627 51.4209 22.0853 51.5063 22C51.5916 21.872 51.8476 21.5947 52.2743 21.168C52.2743 21.1253 52.3596 20.9333 52.5303 20.592C52.7009 20.208 52.7863 19.9947 52.7863 19.952C52.8716 19.7387 52.9569 19.632 53.0423 19.632C53.2129 19.632 53.3409 19.7813 53.4263 20.08C53.5543 20.3787 53.5543 20.6347 53.4263 20.848C53.3836 20.8907 53.2769 20.976 53.1063 21.104C52.9783 21.232 52.8716 21.3387 52.7863 21.424L51.9543 22.256L50.2263 23.792C50.1836 23.8347 50.1409 23.8987 50.0983 23.984C50.0556 24.0693 49.9916 24.1547 49.9062 24.24L49.3303 25.136C49.2876 25.2213 49.2023 25.2213 49.0743 25.136C48.9463 25.008 48.7756 25.0293 48.5623 25.2C48.5196 25.2427 48.4769 25.328 48.4343 25.456C48.4343 25.584 48.4129 25.6907 48.3703 25.776C48.3276 25.904 48.3276 25.9893 48.3703 26.032C48.4129 26.032 48.4343 26.0533 48.4343 26.096C48.3916 26.224 48.3063 26.3093 48.1783 26.352C48.0929 26.3947 48.0076 26.4587 47.9223 26.544C47.8796 26.5867 47.8796 26.6507 47.9223 26.736C47.9649 26.8213 47.9436 26.9067 47.8583 26.992C47.8156 27.12 47.7729 27.1627 47.7303 27.12C47.6876 27.0773 47.6236 27.0987 47.5383 27.184C47.4956 27.2267 47.4316 27.2907 47.3463 27.376C47.3036 27.4187 47.2396 27.4613 47.1543 27.504C46.8129 27.632 46.6209 27.8027 46.5783 28.016C46.5356 28.2293 46.3863 28.464 46.1302 28.72C45.5756 29.2747 45.1916 29.552 44.9783 29.552ZM74.1838 30.192C73.9278 30.192 73.7998 30.0427 73.7998 29.744C73.7998 29.5307 73.8638 29.2747 73.9918 28.976C74.3331 28.2507 74.7171 27.2267 75.1438 25.904C75.6131 24.5813 76.1891 23.4507 76.8718 22.512C77.3411 21.5733 77.7678 20.656 78.1518 19.76C78.5784 18.8213 78.9838 17.8827 79.3678 16.944C79.3678 16.944 79.3251 16.9227 79.2397 16.88C79.1544 16.7947 79.1118 16.7093 79.1118 16.624C78.8984 16.4533 78.6424 16.2187 78.3438 15.92C78.0451 15.5787 78.0238 15.2373 78.2798 14.896C78.3651 14.8107 78.4078 14.768 78.4078 14.768C78.4504 14.768 78.4718 14.768 78.4718 14.768C78.4718 14.7253 78.4504 14.704 78.4078 14.704C78.4078 14.704 78.4078 14.6827 78.4078 14.64L78.3438 14.576C78.3011 14.576 78.2584 14.576 78.2158 14.576C78.2158 14.5333 78.1944 14.512 78.1518 14.512C77.9811 14.512 77.7891 14.5547 77.5758 14.64C77.3624 14.6827 77.1491 14.704 76.9358 14.704C76.6798 14.704 76.3384 14.8107 75.9118 15.024C75.4851 15.1947 75.1011 15.344 74.7598 15.472C74.5891 15.5147 74.4824 15.536 74.4398 15.536C74.4398 15.4933 74.3544 15.5147 74.1838 15.6C74.1411 15.6427 74.1411 15.5787 74.1838 15.408C74.2691 15.1947 74.3118 15.0453 74.3118 14.96C74.3118 14.9173 74.2904 14.896 74.2478 14.896C74.1624 14.896 73.9918 15.024 73.7358 15.28C73.4798 15.4933 73.3091 15.6213 73.2238 15.664C73.1811 15.7067 73.1598 15.7707 73.1598 15.856C73.2024 15.9413 73.2238 16.0267 73.2238 16.112C73.2238 16.24 73.1171 16.3893 72.9038 16.56C72.6904 16.688 72.5411 16.7947 72.4558 16.88C72.2851 17.008 72.0718 17.0933 71.8158 17.136C71.6024 17.136 71.3891 17.2213 71.1758 17.392C70.9198 17.5627 70.7917 17.6907 70.7917 17.776C70.8344 17.8613 70.7064 18.0107 70.4078 18.224C70.0238 18.5227 69.4904 18.9707 68.8078 19.568C68.1678 20.1653 67.6771 20.6987 67.3358 21.168C66.5251 22.1493 65.7784 23.28 65.0958 24.56C64.4558 25.84 64.1358 26.8427 64.1358 27.568C64.1358 28.1227 64.3704 28.4 64.8398 28.4C64.9251 28.4 65.0104 28.4 65.0958 28.4C65.1811 28.3573 65.2878 28.3147 65.4158 28.272L67.0798 27.312L67.4638 27.248V27.184L67.7198 27.376C67.7624 27.3333 67.7411 27.2693 67.6558 27.184C67.6131 27.056 67.6131 26.992 67.6558 26.992C67.6984 26.992 67.7198 27.0133 67.7198 27.056C67.7624 27.056 67.8051 27.056 67.8478 27.056L67.9758 26.864C67.9758 26.864 68.0398 26.8853 68.1678 26.928C68.3384 26.928 68.4664 26.8853 68.5518 26.8C68.6798 26.7573 68.7011 26.6933 68.6158 26.608C68.5731 26.5227 68.5091 26.4587 68.4238 26.416L68.8718 26.032C68.9144 25.9467 69.0851 25.8613 69.3838 25.776C70.1091 25.3067 70.7064 24.752 71.1758 24.112C71.6878 23.4293 72.2638 22.8107 72.9038 22.256H72.9678L73.7358 21.488L73.6718 21.296L74.5038 20.336H74.6318C74.6744 20.2507 74.7598 20.144 74.8878 20.016C75.0584 19.888 75.1651 19.7813 75.2078 19.696C75.2931 19.6533 75.4851 19.44 75.7838 19.056C76.1251 18.6293 76.4451 18.288 76.7438 18.032C77.0851 17.776 77.2771 17.648 77.3198 17.648C77.3624 17.648 77.3838 17.6693 77.3838 17.712C77.3838 17.84 77.3198 18.032 77.1918 18.288C77.1064 18.544 77.0211 18.7147 76.9358 18.8C76.6371 19.2693 76.2531 19.8027 75.7838 20.4C75.3144 20.9547 75.0371 21.296 74.9518 21.424C74.4398 21.9787 73.8211 22.7253 73.0958 23.664C72.3704 24.56 71.5811 25.456 70.7278 26.352C69.8744 27.248 69.0211 28.016 68.1678 28.656C67.3571 29.2533 66.5891 29.552 65.8638 29.552C65.1811 29.552 64.4558 29.3387 63.6878 28.912C62.9198 28.4853 62.5358 27.6747 62.5358 26.48C62.5358 26.096 62.5784 25.6693 62.6638 25.2C62.7918 24.688 62.9838 24.1547 63.2398 23.6C63.2398 23.6 63.2824 23.5573 63.3678 23.472C63.4531 23.344 63.5171 23.3013 63.5598 23.344C63.6451 23.216 63.6664 23.088 63.6238 22.96C63.6238 22.7893 63.6238 22.6827 63.6238 22.64L63.7518 22.512C63.8371 22.0427 64.1571 21.616 64.7118 21.232C65.2664 20.848 65.5651 20.5493 65.6078 20.336C65.6504 20.2933 65.6718 20.2293 65.6718 20.144L65.9278 19.312V19.056H66.1838L66.3758 18.8L66.4398 18.672C66.3544 18.6293 66.3758 18.5653 66.5038 18.48C66.6744 18.352 66.7598 18.288 66.7598 18.288C66.8024 18.2027 66.8451 18.1387 66.8878 18.096C66.9731 18.0533 67.0371 18.0107 67.0798 17.968H67.5278C67.6131 17.84 67.5704 17.776 67.3998 17.776C67.2291 17.776 67.1438 17.776 67.1438 17.776C67.1438 17.7333 67.1438 17.712 67.1438 17.712C67.1864 17.6693 67.2078 17.6267 67.2078 17.584L67.9118 17.008C68.1251 16.8373 68.3384 16.688 68.5518 16.56C68.7651 16.432 68.9571 16.2827 69.1278 16.112C69.2558 16.112 69.2771 16.176 69.1918 16.304C69.2344 16.3893 69.2771 16.3893 69.3198 16.304C69.4051 16.2187 69.4478 16.176 69.4478 16.176L69.7678 16.112V16.048C69.7678 15.9627 69.7891 15.8347 69.8318 15.664C69.8744 15.4933 69.8958 15.3867 69.8958 15.344C70.7918 14.6613 71.7304 14.064 72.7118 13.552C73.6931 12.9973 74.6531 12.72 75.5918 12.72C76.7011 12.72 77.7038 13.1467 78.5998 14L78.9198 14.192C78.9624 14.192 78.9838 14.1707 78.9838 14.128C79.0691 13.5307 79.5598 13.0827 80.4558 12.784C81.3944 12.4853 82.2264 12.336 82.9518 12.336C83.7198 12.336 84.1038 12.4427 84.1038 12.656C84.1038 12.7413 83.9758 12.8907 83.7198 13.104C83.5918 13.1893 83.3784 13.3813 83.0798 13.68C82.7811 13.9787 82.4824 14.3413 82.1838 14.768C82.1411 14.896 82.0771 15.024 81.9918 15.152C81.9064 15.28 81.8211 15.408 81.7358 15.536C81.6931 15.6213 81.6291 15.728 81.5438 15.856C81.5011 15.9413 81.4371 16.0267 81.3518 16.112C80.6264 17.3493 80.0504 18.3947 79.6238 19.248C79.1971 20.1013 78.6851 21.1893 78.0878 22.512C78.0024 22.768 77.9598 22.9173 77.9598 22.96C77.9598 23.3013 78.1518 23.472 78.5358 23.472C78.7918 23.472 79.0478 23.408 79.3038 23.28L79.9438 23.024C80.9678 22.0853 82.0344 21.296 83.1438 20.656C83.1864 20.656 83.2078 20.656 83.2078 20.656C83.2504 20.6133 83.2931 20.592 83.3358 20.592C83.4638 20.592 83.5491 20.6773 83.5918 20.848C83.6344 20.976 83.5918 21.0827 83.4638 21.168C82.2264 21.8507 81.0744 22.7253 80.0078 23.792C79.9651 23.8773 79.9224 23.9627 79.8798 24.048C79.8371 24.1333 79.7731 24.2187 79.6878 24.304C79.5598 24.3893 79.4318 24.5387 79.3038 24.752C79.1758 24.9653 79.1118 25.0933 79.1118 25.136C79.0691 25.264 79.0051 25.3067 78.9198 25.264C78.8771 25.2213 78.7491 25.2853 78.5358 25.456C78.4931 25.4987 78.4504 25.584 78.4078 25.712C78.4078 25.84 78.3864 25.9467 78.3438 26.032C78.2584 26.16 78.1731 26.2667 78.0878 26.352C78.0024 26.3947 77.9598 26.4373 77.9598 26.48C77.9171 26.6507 77.8318 26.7573 77.7038 26.8C77.6184 26.8 77.5331 26.8427 77.4478 26.928C77.4051 26.928 77.3838 26.9493 77.3838 26.992C77.3838 27.376 77.3411 27.5467 77.2558 27.504C77.1704 27.4613 77.0851 27.504 76.9998 27.632C76.9144 27.8027 76.8078 27.888 76.6798 27.888C76.4238 27.9733 76.3171 28.0373 76.3598 28.08C76.4451 28.1227 76.5091 28.1653 76.5518 28.208C76.6371 28.208 76.5731 28.272 76.3598 28.4C76.2744 28.4427 76.1891 28.5707 76.1038 28.784C76.0184 28.9547 75.9331 29.0827 75.8478 29.168C75.7198 29.2533 75.5918 29.3173 75.4638 29.36C75.3358 29.4027 75.2291 29.488 75.1438 29.616C74.7598 30 74.4398 30.192 74.1838 30.192ZM82.8528 30.192C82.5968 30.192 82.4688 30.0427 82.4688 29.744C82.4688 29.5307 82.5328 29.2747 82.6608 28.976C83.0021 28.2507 83.4074 27.2267 83.8768 25.904C84.3461 24.5813 84.9221 23.4507 85.6048 22.512L88.1008 16.944C88.1008 16.944 88.0581 16.9227 87.9728 16.88C87.8874 16.7947 87.8448 16.7093 87.8448 16.624C87.5888 16.4533 87.3114 16.2187 87.0128 15.92C86.7568 15.5787 86.7354 15.2373 86.9488 14.896C87.0341 14.8107 87.0981 14.768 87.1408 14.768C87.1834 14.768 87.2048 14.768 87.2048 14.768V14.64C87.2048 14.4693 87.2688 14.3627 87.3968 14.32C87.5674 14.2773 87.6741 14.2133 87.7168 14.128C87.8021 13.5307 88.2928 13.0827 89.1888 12.784C90.1274 12.4853 90.9594 12.336 91.6848 12.336C92.4101 12.336 92.7728 12.4427 92.7728 12.656C92.7728 12.784 92.6448 12.9333 92.3888 13.104C92.3034 13.1893 92.0901 13.3813 91.7488 13.68C91.4501 13.9787 91.1728 14.3413 90.9167 14.768L90.4688 15.536L90.0208 16.112C89.3381 17.3493 88.7834 18.3947 88.3568 19.248C87.9301 20.1013 87.4181 21.1893 86.8208 22.512C86.6928 22.768 86.6288 22.9813 86.6288 23.152C86.6288 23.3653 86.7141 23.472 86.8848 23.472C86.9701 23.472 87.0554 23.4507 87.1408 23.408C87.2688 23.3227 87.3968 23.2587 87.5248 23.216C87.8661 23.0027 88.1434 22.8107 88.3568 22.64C88.6128 22.4267 88.8901 22.2133 89.1888 22C89.3168 21.872 89.4234 21.872 89.5088 22C89.5941 22.0853 89.5941 22.2133 89.5088 22.384C89.3381 22.7253 89.2101 22.9387 89.1248 23.024C89.0821 23.0667 89.0181 23.1093 88.9328 23.152C88.8474 23.1947 88.6554 23.3867 88.3568 23.728L88.1008 24.24C88.0154 24.3253 87.9088 24.496 87.7808 24.752C87.6954 24.9653 87.6528 25.0933 87.6528 25.136C87.6528 25.2213 87.6101 25.264 87.5248 25.264C87.4394 25.2213 87.3114 25.2853 87.1408 25.456C87.0981 25.4987 87.0768 25.584 87.0768 25.712C87.1194 25.84 87.0981 25.9467 87.0128 26.032C86.9701 26.16 86.9061 26.2667 86.8208 26.352C86.7354 26.3947 86.6927 26.4373 86.6927 26.48C86.6501 26.6507 86.5648 26.7573 86.4368 26.8C86.3514 26.8 86.2661 26.8427 86.1808 26.928C86.1381 26.928 86.1168 26.9707 86.1168 27.056C86.1168 27.3973 86.0741 27.5467 85.9888 27.504C85.9034 27.4613 85.8181 27.504 85.7328 27.632C85.6474 27.8027 85.5408 27.888 85.4128 27.888C85.1568 27.9733 85.0501 28.0373 85.0928 28.08C85.1354 28.1227 85.1994 28.1653 85.2848 28.208C85.3701 28.208 85.3061 28.272 85.0928 28.4C84.9648 28.4427 84.8581 28.5707 84.7728 28.784C84.6874 28.9547 84.6021 29.0827 84.5168 29.168C84.4314 29.2533 84.3248 29.3173 84.1968 29.36C84.0688 29.4027 83.9621 29.488 83.8768 29.616C83.4928 30 83.1514 30.192 82.8528 30.192ZM101.925 29.68C101.754 29.68 101.605 29.68 101.477 29.68C101.349 29.6373 101.221 29.5947 101.093 29.552C100.666 29.4667 100.282 29.3387 99.9408 29.168C99.6421 28.9973 99.3861 28.6773 99.1728 28.208C99.1301 27.9947 99.0234 27.7173 98.8528 27.376C98.7248 27.0347 98.6394 26.7147 98.5968 26.416C98.5541 26.2027 98.5328 25.9467 98.5328 25.648C98.4901 25.4347 98.4688 25.1573 98.4688 24.816C98.3834 24.3893 98.3408 24.0053 98.3408 23.664C98.3834 23.3227 98.4048 22.9173 98.4048 22.448C98.4048 21.9787 98.4261 21.6373 98.4688 21.424C98.5541 21.04 98.5968 20.848 98.5968 20.848C98.5968 20.8053 98.5968 20.592 98.5968 20.208C98.6394 19.696 98.6608 19.1627 98.6608 18.608C98.6608 18.0533 98.6821 17.6053 98.7248 17.264C98.8528 15.984 98.5968 15.344 97.9568 15.344C97.7008 15.344 97.3594 15.4507 96.9328 15.664C96.8901 15.792 96.8048 15.8773 96.6768 15.92C96.5914 15.92 96.4634 15.9627 96.2928 16.048L95.9728 16.24C95.9728 16.2827 95.9301 16.304 95.8448 16.304C95.7594 16.2613 95.7168 16.2827 95.7168 16.368C95.7594 16.5387 95.7381 16.6453 95.6528 16.688C95.6101 16.7307 95.5461 16.7093 95.4608 16.624L94.7568 17.136C94.7568 17.1787 94.6928 17.264 94.5648 17.392L94.5008 17.456C94.3301 17.6267 94.1808 17.712 94.0528 17.712L93.8608 17.904C93.8608 17.9467 93.8181 18.032 93.7328 18.16C93.6901 18.2453 93.5834 18.2667 93.4128 18.224L93.0928 18.544C92.9221 18.8 92.7728 18.9493 92.6448 18.992C92.5594 19.0347 92.4528 19.0773 92.3248 19.12L91.8128 19.76L91.5568 19.824C91.5568 19.9947 91.3648 20.2507 90.9808 20.592C90.6394 20.9333 90.4048 21.168 90.2768 21.296C90.1488 21.424 90.0208 21.488 89.8928 21.488C89.8074 21.488 89.7648 21.4453 89.7648 21.36C89.7648 21.3173 89.8714 21.1467 90.0848 20.848C90.2554 20.6773 90.5114 20.3573 90.8528 19.888C91.2368 19.4187 91.4501 19.2053 91.4928 19.248C91.7061 19.0347 91.8554 18.8213 91.9408 18.608C92.0261 18.352 92.1754 18.1387 92.3888 17.968C92.3888 18.0107 92.3888 18.0533 92.3888 18.096C92.4314 18.096 92.4528 18.096 92.4528 18.096C92.5381 18.096 92.6448 17.9893 92.7728 17.776C92.9008 17.52 92.9861 17.4133 93.0288 17.456L94.1168 16.496C94.1168 16.4533 94.2234 16.368 94.4368 16.24C94.6074 16.1547 94.7141 16.112 94.7568 16.112C94.7994 16.112 94.9061 15.984 95.0768 15.728L95.5248 15.408C95.5674 15.3227 95.6101 15.344 95.6528 15.472C95.7381 15.5573 95.8021 15.5787 95.8448 15.536L96.0368 15.088C96.1221 14.96 96.2501 14.8533 96.4208 14.768C96.6341 14.64 96.8474 14.512 97.0608 14.384C97.5728 13.872 97.9568 13.616 98.2128 13.616H98.4688C99.0234 13.4027 99.5354 13.296 100.005 13.296C100.687 13.296 101.221 13.552 101.605 14.064C101.69 14.192 101.775 14.4267 101.861 14.768C101.946 14.8107 101.967 14.8747 101.925 14.96C101.925 15.0027 101.946 15.0667 101.989 15.152C102.031 15.2373 102.117 15.344 102.245 15.472C102.373 15.5573 102.437 15.664 102.437 15.792V15.92C102.437 16.0907 102.33 16.24 102.117 16.368C102.33 16.5387 102.415 16.6453 102.373 16.688C102.373 16.688 102.351 16.752 102.309 16.88L102.181 17.776C102.138 18.0747 102.074 18.3093 101.989 18.48C101.903 18.608 101.818 18.8427 101.733 19.184C101.903 19.44 101.903 19.6107 101.733 19.696H101.605L101.541 19.952C101.541 20.0373 101.583 20.1227 101.669 20.208L101.477 20.592C101.519 20.5493 101.541 20.5493 101.541 20.592C101.583 20.592 101.605 20.592 101.605 20.592C101.562 20.6773 101.498 20.848 101.413 21.104C101.327 21.3173 101.263 21.488 101.221 21.616C101.178 21.8293 101.093 21.936 100.965 21.936C100.837 21.936 100.794 22.0427 100.837 22.256C100.879 22.2987 100.901 22.448 100.901 22.704C100.943 22.9173 100.922 23.024 100.837 23.024L100.709 23.792V23.984C100.709 24.1973 100.666 24.4107 100.581 24.624C100.538 24.8373 100.495 25.0507 100.453 25.264C100.41 25.4773 100.367 25.712 100.325 25.968C100.325 26.1813 100.325 26.3947 100.325 26.608C100.325 26.7787 100.325 26.9707 100.325 27.184C100.367 27.3547 100.41 27.5253 100.453 27.696C100.453 27.7387 100.517 27.8667 100.645 28.08C100.773 28.2933 100.837 28.4213 100.837 28.464L101.029 28.656C101.114 28.6987 101.242 28.6987 101.413 28.656C101.626 28.6133 101.775 28.6347 101.861 28.72C102.245 28.7627 102.735 28.5707 103.333 28.144C103.973 27.6747 104.549 27.1627 105.061 26.608C105.189 26.48 105.317 26.416 105.445 26.416C105.53 26.416 105.594 26.48 105.637 26.608C105.679 26.736 105.637 26.9067 105.509 27.12C104.826 28.1013 104.186 28.784 103.589 29.168C102.991 29.5093 102.437 29.68 101.925 29.68ZM109.032 30.192C108.776 30.192 108.648 30.0427 108.648 29.744C108.648 29.5307 108.712 29.2747 108.84 28.976C109.181 28.2507 109.565 27.2267 109.992 25.904C110.461 24.5813 111.037 23.4507 111.72 22.512L114.92 15.92C114.664 15.92 114.408 15.984 114.152 16.112C113.938 16.24 113.832 16.3467 113.832 16.432C113.832 16.6027 113.597 16.7733 113.128 16.944C112.658 17.1147 112.402 17.2213 112.36 17.264C111.72 17.4347 111.122 17.6267 110.568 17.84C110.141 18.3093 109.714 18.7787 109.288 19.248C108.904 19.7173 108.541 20.1867 108.2 20.656C108.157 20.6987 108.114 20.72 108.072 20.72C107.688 21.1467 107.368 21.4667 107.112 21.68C106.856 21.8933 106.578 22.0853 106.28 22.256C106.109 22.384 105.938 22.4267 105.768 22.384C105.554 22.2987 105.533 22.2133 105.704 22.128C105.917 22.0427 106.258 21.744 106.728 21.232C107.197 20.72 107.56 20.336 107.816 20.08C108.029 19.952 108.093 19.952 108.008 20.08C107.965 20.208 108.029 20.1867 108.2 20.016L109.8 17.968L109.864 17.904C109.65 17.776 109.544 17.4347 109.544 16.88C109.544 16.4533 109.629 16.112 109.8 15.856C109.8 15.8133 109.842 15.792 109.928 15.792L111.272 15.408C111.4 15.408 111.485 15.3867 111.528 15.344C111.613 15.2587 111.698 15.152 111.784 15.024C111.912 14.8533 112.061 14.64 112.232 14.384L113 13.36L113.512 12.656C113.512 12.528 113.597 12.3787 113.768 12.208C113.981 11.9947 114.152 11.8453 114.28 11.76C114.45 11.504 114.557 11.312 114.6 11.184C114.685 11.0133 114.813 10.8 114.984 10.544C114.984 10.5013 115.048 10.48 115.176 10.48C115.304 10.4373 115.368 10.3947 115.368 10.352C115.41 9.92533 115.474 9.73333 115.56 9.776C115.688 9.776 115.752 9.712 115.752 9.584C115.752 9.456 115.837 9.34933 116.008 9.264L116.328 8.88C116.328 8.83733 116.392 8.752 116.52 8.624V8.56C116.52 8.47467 116.52 8.368 116.52 8.24C116.52 8.112 116.562 7.984 116.648 7.856C116.733 7.77067 116.797 7.728 116.84 7.728C116.882 7.728 116.904 7.728 116.904 7.728C116.904 7.68533 116.882 7.664 116.84 7.664C116.84 7.62133 116.84 7.6 116.84 7.6C116.84 7.42933 116.925 7.32267 117.096 7.28C117.266 7.23733 117.352 7.17333 117.352 7.088C117.437 6.49067 117.949 6.04267 118.888 5.744C119.826 5.44533 120.658 5.296 121.384 5.296C122.109 5.296 122.472 5.40267 122.472 5.616C122.472 5.70133 122.344 5.85067 122.088 6.064C121.96 6.10667 121.746 6.29867 121.448 6.64C121.149 6.93867 120.872 7.30133 120.616 7.728L120.104 8.496C120.061 8.58133 119.997 8.688 119.912 8.816C119.869 8.90133 119.805 8.98667 119.72 9.072C119.421 9.584 119.016 10.3093 118.504 11.248C118.034 12.144 117.522 13.1467 116.968 14.256L118.632 14.064C118.76 14.064 118.802 14.0853 118.76 14.128C118.76 14.1707 118.824 14.1707 118.952 14.128C119.165 14.128 119.314 14.1067 119.4 14.064C119.485 13.9787 119.634 13.9147 119.848 13.872C120.189 13.8293 120.573 13.808 121 13.808C121.469 13.7653 121.832 13.744 122.088 13.744C122.258 13.744 122.472 13.744 122.728 13.744C122.984 13.744 123.176 13.7653 123.304 13.808C123.389 13.808 123.41 13.8507 123.368 13.936C123.368 13.9787 123.389 14 123.432 14C123.517 14 123.581 13.9787 123.624 13.936C123.709 13.8933 123.794 13.872 123.88 13.872C123.922 13.8293 123.986 13.8293 124.072 13.872C124.2 13.872 124.285 13.872 124.328 13.872L124.968 14.064C125.224 14.1067 125.352 14.256 125.352 14.512C125.394 14.768 125.288 14.8533 125.032 14.768C124.861 14.6827 124.712 14.64 124.584 14.64H122.984C122.685 14.64 122.408 14.64 122.152 14.64C121.896 14.64 121.64 14.6613 121.384 14.704C121.298 14.7467 121.256 14.704 121.256 14.576C121.298 14.448 121.277 14.384 121.192 14.384C121.149 14.384 121.085 14.448 121 14.576C120.914 14.6613 120.85 14.704 120.808 14.704L120.488 14.896C119.805 15.0667 119.08 15.2587 118.312 15.472C117.544 15.6427 116.797 15.8347 116.072 16.048C115.432 17.3707 114.813 18.6293 114.216 19.824C113.661 20.976 113.234 21.872 112.936 22.512C112.85 22.768 112.808 22.9173 112.808 22.96C112.808 23.3013 113 23.472 113.384 23.472C113.64 23.472 113.896 23.408 114.152 23.28L114.792 23.024C115.816 22.0853 116.882 21.296 117.992 20.656C118.034 20.656 118.056 20.656 118.056 20.656C118.098 20.6133 118.141 20.592 118.184 20.592C118.312 20.592 118.397 20.6773 118.44 20.848C118.482 20.976 118.44 21.0827 118.312 21.168C117.074 21.8507 115.922 22.7253 114.856 23.792C114.813 23.8773 114.77 23.9627 114.728 24.048C114.685 24.1333 114.621 24.2187 114.536 24.304C114.45 24.3893 114.322 24.5387 114.152 24.752C114.024 24.9653 113.96 25.0933 113.96 25.136C113.917 25.264 113.853 25.3067 113.768 25.264C113.725 25.2213 113.597 25.2853 113.384 25.456C113.341 25.4987 113.298 25.584 113.256 25.712C113.256 25.84 113.234 25.9467 113.192 26.032C113.106 26.16 113.021 26.2667 112.936 26.352C112.85 26.3947 112.808 26.4373 112.808 26.48C112.765 26.6507 112.68 26.7573 112.552 26.8C112.466 26.8 112.381 26.8427 112.296 26.928C112.253 26.928 112.232 26.9493 112.232 26.992C112.232 27.376 112.189 27.5467 112.104 27.504C112.018 27.4613 111.954 27.504 111.912 27.632C111.741 27.8027 111.613 27.888 111.528 27.888C111.272 27.9733 111.165 28.0373 111.208 28.08C111.293 28.1227 111.357 28.1653 111.4 28.208C111.485 28.208 111.421 28.272 111.208 28.4C111.122 28.4427 111.037 28.5707 110.952 28.784C110.866 28.9547 110.781 29.0827 110.696 29.168C110.568 29.2533 110.44 29.3173 110.312 29.36C110.184 29.4027 110.077 29.488 109.992 29.616C109.608 30 109.288 30.192 109.032 30.192ZM112.68 15.152C112.85 15.1093 113 15.0667 113.128 15.024C113.298 14.9813 113.469 14.9173 113.64 14.832L115.56 14.512C116.072 13.488 116.52 12.5707 116.904 11.76C117.288 10.9067 117.565 10.288 117.736 9.904C117.736 9.904 117.693 9.88267 117.608 9.84C117.565 9.75467 117.544 9.66933 117.544 9.584C117.458 9.54133 117.352 9.47733 117.224 9.392C117.138 9.30667 117.053 9.24267 116.968 9.2L116.392 9.776L115.688 10.736C115.688 10.7787 115.624 10.8213 115.496 10.864C115.41 10.864 115.368 10.8853 115.368 10.928C115.368 11.056 115.304 11.184 115.176 11.312C115.09 11.44 115.005 11.4827 114.92 11.44L114.664 12.08C114.664 12.208 114.6 12.3147 114.472 12.4L114.024 12.976C114.024 13.0187 114.002 13.0613 113.96 13.104C113.96 13.104 113.96 13.1467 113.96 13.232C113.917 13.3173 113.853 13.424 113.768 13.552C113.682 13.68 113.576 13.808 113.448 13.936C113.405 13.936 113.384 13.9573 113.384 14C113.384 14 113.362 14 113.32 14L113.128 14.384C112.957 14.4693 112.85 14.512 112.808 14.512L112.744 14.64C112.744 14.896 112.722 15.0667 112.68 15.152ZM134.284 29.936C133.644 29.936 133.174 29.6587 132.876 29.104C132.833 28.976 132.726 28.784 132.556 28.528C132.428 28.272 132.321 28.0587 132.236 27.888V27.824C132.236 27.7387 132.257 27.6533 132.3 27.568C132.342 27.4827 132.364 27.3973 132.364 27.312C132.364 27.1413 132.321 26.992 132.236 26.864C132.15 26.6933 132.108 26.5227 132.108 26.352C132.108 25.7547 132.278 25.0507 132.62 24.24C133.004 23.4293 133.302 22.7253 133.516 22.128C133.601 21.7867 133.814 21.3813 134.156 20.912C134.198 20.8693 134.241 20.848 134.284 20.848C134.369 20.848 134.433 20.8267 134.476 20.784C134.561 20.656 134.604 20.528 134.604 20.4C134.646 20.2293 134.689 20.08 134.732 19.952C134.774 19.8667 134.86 19.824 134.988 19.824C135.116 19.824 135.201 19.7813 135.244 19.696C135.286 19.6107 135.222 19.568 135.052 19.568C134.881 19.568 134.817 19.5253 134.86 19.44C135.158 18.8853 135.478 18.3093 135.82 17.712C136.204 17.1147 136.46 16.7307 136.588 16.56C136.545 16.6027 136.524 16.56 136.524 16.432C136.524 16.2613 136.481 16.1973 136.396 16.24C136.353 16.2827 136.246 16.3893 136.076 16.56C135.905 16.7307 135.777 16.8587 135.692 16.944C135.478 17.1147 135.222 17.3493 134.924 17.648C134.625 17.9467 134.433 18.1387 134.348 18.224C134.22 18.2667 134.049 18.4587 133.836 18.8C133.622 19.0987 133.473 19.2907 133.388 19.376C133.217 19.5467 133.046 19.632 132.876 19.632C132.79 19.632 132.726 19.5893 132.684 19.504C132.684 19.376 132.726 19.248 132.812 19.12C132.897 19.0347 132.982 18.928 133.068 18.8C133.153 18.6293 133.217 18.5013 133.26 18.416C133.302 18.3733 133.366 18.3093 133.452 18.224C133.537 18.096 133.58 18.0107 133.58 17.968L134.092 17.392C134.134 17.3493 134.22 17.3493 134.348 17.392C134.476 17.392 134.561 17.3707 134.604 17.328C134.646 17.2427 134.582 17.2 134.412 17.2C134.284 17.1573 134.241 17.1147 134.284 17.072C134.668 16.3893 135.158 15.728 135.756 15.088C136.353 14.448 136.758 14 136.972 13.744C137.185 13.488 137.462 13.296 137.804 13.168C138.188 12.9973 138.55 12.912 138.892 12.912C139.19 12.912 139.404 12.9333 139.532 12.976C139.788 13.0613 140.086 13.1893 140.428 13.36C140.812 13.488 141.046 13.68 141.132 13.936C141.26 14.192 141.174 14.5973 140.876 15.152C140.577 15.7067 140.214 16.2613 139.788 16.816C139.404 17.328 139.084 17.6693 138.828 17.84C138.785 17.8827 138.678 17.904 138.508 17.904C138.337 17.904 138.124 17.904 137.868 17.904C137.612 17.8613 137.462 17.8827 137.42 17.968C137.292 18.1387 137.142 18.3093 136.972 18.48C136.801 18.608 136.673 18.7787 136.588 18.992C136.545 19.248 136.481 19.4613 136.396 19.632C136.353 19.8027 136.225 20.0587 136.012 20.4C135.969 20.4853 135.884 20.6347 135.756 20.848C135.628 21.0187 135.542 21.1467 135.5 21.232C135.201 22.1707 134.924 23.0667 134.668 23.92C134.454 24.7307 134.348 25.4133 134.348 25.968C134.348 26.5227 134.518 27.0133 134.86 27.44C135.201 27.824 135.649 28.016 136.204 28.016C136.844 28.016 137.526 27.8027 138.252 27.376C138.678 27.2053 139.148 26.8853 139.66 26.416C139.745 26.3307 139.809 26.2667 139.852 26.224C139.937 26.1387 140.022 26.0747 140.108 26.032H140.3C140.513 26.032 140.62 26.1173 140.62 26.288C140.62 26.4587 140.47 26.672 140.172 26.928C140.001 27.056 139.83 27.1627 139.66 27.248C139.532 27.3333 139.382 27.44 139.212 27.568C138.998 27.696 138.764 27.9093 138.508 28.208C138.252 28.464 137.953 28.592 137.612 28.592H137.548C137.42 28.592 137.313 28.5707 137.228 28.528C137.142 28.4427 137.057 28.4213 136.972 28.464C136.844 28.5067 136.844 28.592 136.972 28.72C137.142 28.8053 137.164 28.8907 137.036 28.976L136.524 29.232C135.585 29.7013 134.838 29.936 134.284 29.936ZM123.916 29.552C123.66 29.552 123.34 29.2747 122.956 28.72C122.7 28.3787 122.572 27.8453 122.572 27.12C122.572 26.3947 122.7 25.6053 122.956 24.752C123.254 23.8987 123.617 23.152 124.044 22.512C124.513 21.5733 124.833 20.8693 125.004 20.4C125.174 19.9307 125.345 19.5467 125.516 19.248C125.516 19.2053 125.473 19.1627 125.388 19.12C125.302 19.0773 125.26 18.992 125.26 18.864C125.004 18.6933 124.726 18.4587 124.428 18.16C124.172 17.8187 124.15 17.4987 124.364 17.2C124.449 17.1147 124.513 17.072 124.556 17.072C124.598 17.0293 124.62 17.008 124.62 17.008V16.88C124.62 16.7093 124.684 16.6027 124.812 16.56C124.982 16.5173 125.068 16.4533 125.068 16.368C125.153 15.7707 125.644 15.3227 126.54 15.024C127.478 14.7253 128.31 14.576 129.036 14.576C129.846 14.576 130.252 14.704 130.252 14.96C130.252 15.088 130.102 15.2373 129.804 15.408C129.676 15.4507 129.462 15.6213 129.164 15.92C128.865 16.2187 128.588 16.5813 128.332 17.008L127.884 17.776L127.436 18.352C127.18 18.8213 126.902 19.312 126.604 19.824C126.348 20.2933 125.921 21.1893 125.324 22.512C125.153 22.9387 125.004 23.344 124.876 23.728C124.79 24.112 124.79 24.4107 124.876 24.624C124.918 24.6667 124.769 24.816 124.428 25.072C124.129 25.328 124.001 25.4773 124.044 25.52C124.086 25.52 124.15 25.5413 124.236 25.584C124.321 25.584 124.428 25.584 124.556 25.584C124.812 25.584 125.068 25.5413 125.324 25.456C125.452 25.4133 125.558 25.328 125.644 25.2C125.729 25.0293 125.793 24.944 125.836 24.944C126.092 24.944 126.369 24.88 126.668 24.752C127.137 24.5387 127.713 24.112 128.396 23.472C128.481 23.3867 128.652 23.3227 128.908 23.28C129.164 23.1947 129.377 23.0453 129.548 22.832C130.06 22.3627 130.358 22.0853 130.444 22C130.529 21.872 130.785 21.5947 131.212 21.168C131.212 21.1253 131.297 20.9333 131.468 20.592C131.638 20.208 131.724 19.9947 131.724 19.952C131.809 19.7387 131.894 19.632 131.98 19.632C132.15 19.632 132.278 19.7813 132.364 20.08C132.492 20.3787 132.492 20.6347 132.364 20.848C132.321 20.8907 132.214 20.976 132.044 21.104C131.916 21.232 131.809 21.3387 131.724 21.424L130.892 22.256L129.164 23.792C129.121 23.8347 129.078 23.8987 129.036 23.984C128.993 24.0693 128.929 24.1547 128.844 24.24L128.268 25.136C128.225 25.2213 128.14 25.2213 128.012 25.136C127.884 25.008 127.713 25.0293 127.5 25.2C127.457 25.2427 127.414 25.328 127.372 25.456C127.372 25.584 127.35 25.6907 127.308 25.776C127.265 25.904 127.265 25.9893 127.308 26.032C127.35 26.032 127.372 26.0533 127.372 26.096C127.329 26.224 127.244 26.3093 127.116 26.352C127.03 26.3947 126.945 26.4587 126.86 26.544C126.817 26.5867 126.817 26.6507 126.86 26.736C126.902 26.8213 126.881 26.9067 126.796 26.992C126.753 27.12 126.71 27.1627 126.668 27.12C126.625 27.0773 126.561 27.0987 126.476 27.184C126.433 27.2267 126.369 27.2907 126.284 27.376C126.241 27.4187 126.177 27.4613 126.092 27.504C125.75 27.632 125.558 27.8027 125.516 28.016C125.473 28.2293 125.324 28.464 125.068 28.72C124.513 29.2747 124.129 29.552 123.916 29.552ZM141.665 30.192C141.409 30.192 141.281 30.0427 141.281 29.744C141.281 29.5307 141.345 29.2747 141.473 28.976C141.815 28.2507 142.22 27.2267 142.689 25.904C143.159 24.5813 143.735 23.4507 144.417 22.512L146.913 16.944C146.913 16.944 146.871 16.9227 146.785 16.88C146.7 16.7947 146.657 16.7093 146.657 16.624C146.401 16.4533 146.124 16.2187 145.825 15.92C145.569 15.5787 145.548 15.2373 145.761 14.896C145.847 14.8107 145.911 14.768 145.953 14.768C145.996 14.768 146.017 14.768 146.017 14.768V14.64C146.017 14.4693 146.081 14.3627 146.209 14.32C146.38 14.2773 146.487 14.2133 146.529 14.128C146.615 13.5307 147.105 13.0827 148.001 12.784C148.94 12.4853 149.772 12.336 150.497 12.336C151.223 12.336 151.585 12.4427 151.585 12.656C151.585 12.784 151.457 12.9333 151.201 13.104C151.116 13.1893 150.903 13.3813 150.561 13.68C150.263 13.9787 149.985 14.3413 149.729 14.768L149.281 15.536L148.833 16.112C148.151 17.3493 147.596 18.3947 147.169 19.248C146.743 20.1013 146.231 21.1893 145.633 22.512C145.505 22.768 145.441 22.9813 145.441 23.152C145.441 23.3653 145.527 23.472 145.697 23.472C145.783 23.472 145.868 23.4507 145.953 23.408C146.081 23.3227 146.209 23.2587 146.337 23.216C146.679 23.0027 146.956 22.8107 147.169 22.64C147.425 22.4267 147.703 22.2133 148.001 22C148.129 21.872 148.236 21.872 148.321 22C148.407 22.0853 148.407 22.2133 148.321 22.384C148.151 22.7253 148.023 22.9387 147.937 23.024C147.895 23.0667 147.831 23.1093 147.745 23.152C147.66 23.1947 147.468 23.3867 147.169 23.728L146.913 24.24C146.828 24.3253 146.721 24.496 146.593 24.752C146.508 24.9653 146.465 25.0933 146.465 25.136C146.465 25.2213 146.423 25.264 146.337 25.264C146.252 25.2213 146.124 25.2853 145.953 25.456C145.911 25.4987 145.889 25.584 145.889 25.712C145.932 25.84 145.911 25.9467 145.825 26.032C145.783 26.16 145.719 26.2667 145.633 26.352C145.548 26.3947 145.505 26.4373 145.505 26.48C145.463 26.6507 145.377 26.7573 145.249 26.8C145.164 26.8 145.079 26.8427 144.993 26.928C144.951 26.928 144.929 26.9707 144.929 27.056C144.929 27.3973 144.887 27.5467 144.801 27.504C144.716 27.4613 144.631 27.504 144.545 27.632C144.46 27.8027 144.353 27.888 144.225 27.888C143.969 27.9733 143.863 28.0373 143.905 28.08C143.948 28.1227 144.012 28.1653 144.097 28.208C144.183 28.208 144.119 28.272 143.905 28.4C143.777 28.4427 143.671 28.5707 143.585 28.784C143.5 28.9547 143.415 29.0827 143.329 29.168C143.244 29.2533 143.137 29.3173 143.009 29.36C142.881 29.4027 142.775 29.488 142.689 29.616C142.305 30 141.964 30.192 141.665 30.192ZM153.057 28.784C152.801 28.784 152.588 28.6987 152.417 28.528H152.353C151.969 28.528 151.905 28.3573 152.161 28.016C152.204 27.76 152.289 27.568 152.417 27.44C152.545 27.2693 152.695 27.0987 152.865 26.928C152.908 26.928 152.929 26.928 152.929 26.928C152.929 26.8853 152.929 26.864 152.929 26.864C153.057 26.5653 153.228 26.3307 153.441 26.16L153.697 25.776C153.868 25.6053 154.039 25.3493 154.209 25.008C154.38 24.7947 154.487 24.6453 154.529 24.56C154.572 24.432 154.657 24.2187 154.785 23.92C154.785 23.8347 154.849 23.7067 154.977 23.536C155.105 23.3653 155.191 23.2587 155.233 23.216L155.617 22.256C155.66 22.0427 155.724 21.872 155.809 21.744C155.895 21.616 155.959 21.4453 156.001 21.232L156.385 20.272C156.471 19.9733 156.577 19.76 156.705 19.632H156.769C156.727 19.504 156.769 19.3333 156.897 19.12C156.983 18.8213 157.047 18.5653 157.089 18.352C157.175 18.096 157.217 17.968 157.217 17.968L157.409 16.816C157.367 16.048 157.047 15.664 156.449 15.664C156.236 15.664 155.959 15.728 155.617 15.856C154.892 16.0693 154.124 16.5173 153.313 17.2C153.271 17.2427 153.207 17.3067 153.121 17.392C153.079 17.4773 153.015 17.5627 152.929 17.648C152.887 17.6907 152.844 17.712 152.801 17.712C152.801 17.6693 152.759 17.6907 152.673 17.776C152.631 17.8187 152.609 17.8827 152.609 17.968C152.609 18.0107 152.588 18.0533 152.545 18.096C152.503 18.1387 152.439 18.1813 152.353 18.224C152.311 18.224 152.247 18.2667 152.161 18.352C152.119 18.352 152.076 18.3947 152.033 18.48C152.033 18.5227 152.012 18.5653 151.969 18.608C151.799 18.7787 151.585 18.992 151.329 19.248C151.073 19.4613 150.796 19.6747 150.497 19.888L150.241 20.08C150.199 20.1227 150.135 20.208 150.049 20.336C150.007 20.4213 149.943 20.5067 149.857 20.592C149.687 20.7627 149.537 20.9547 149.409 21.168C149.281 21.3813 149.111 21.5093 148.897 21.552H148.769C148.556 21.552 148.556 21.36 148.769 20.976C148.812 20.8907 148.919 20.7413 149.089 20.528C149.303 20.3147 149.431 20.1867 149.473 20.144L149.729 19.888C149.815 19.8027 149.857 19.7387 149.857 19.696C149.857 19.6533 149.879 19.6107 149.921 19.568L150.561 18.992L150.817 18.672L151.265 18.352L152.545 17.136C152.631 17.0507 152.759 16.9013 152.929 16.688C153.143 16.4747 153.292 16.3467 153.377 16.304C153.591 16.0907 153.825 15.92 154.081 15.792C154.337 15.6213 154.593 15.4293 154.849 15.216C155.063 15.0453 155.297 14.896 155.553 14.768C155.724 14.5973 155.852 14.4907 155.937 14.448C156.321 14.2347 156.535 14.1067 156.577 14.064C156.62 14.0213 156.769 13.9573 157.025 13.872C157.409 13.744 157.857 13.68 158.369 13.68C158.711 13.68 158.924 13.7013 159.009 13.744C159.223 13.8293 159.436 13.9147 159.649 14C159.863 14.0853 159.969 14.2987 159.969 14.64C159.969 14.8533 159.991 14.9813 160.033 15.024C160.076 15.024 160.076 15.152 160.033 15.408C160.033 15.5787 160.012 15.856 159.969 16.24C159.969 16.624 159.927 16.9227 159.841 17.136C159.799 17.3493 159.692 17.648 159.521 18.032C159.393 18.3733 159.287 18.672 159.201 18.928L159.009 19.44L158.433 20.464C158.391 20.5067 158.241 20.6133 157.985 20.784C157.729 20.912 157.559 21.0187 157.473 21.104C157.431 21.1467 157.495 21.232 157.665 21.36C157.836 21.488 157.815 21.7013 157.601 22C157.516 22.1707 157.409 22.2773 157.281 22.32C157.153 22.32 157.025 22.4267 156.897 22.64C156.385 23.3653 155.98 23.8773 155.681 24.176L154.977 25.136L154.785 25.328C154.956 25.328 155.105 25.4347 155.233 25.648C155.276 25.776 155.361 25.8827 155.489 25.968C155.617 26.0533 155.681 26.224 155.681 26.48C155.681 26.7787 155.511 27.2053 155.169 27.76C154.828 28.3147 154.423 28.592 153.953 28.592C153.783 28.592 153.633 28.6347 153.505 28.72C153.377 28.7627 153.228 28.784 153.057 28.784ZM170.273 30.32C169.932 30.32 169.697 30.2987 169.569 30.256C169.143 30.1707 168.759 30.0427 168.417 29.872C168.119 29.7013 167.863 29.3813 167.649 28.912C167.564 28.6987 167.457 28.4213 167.329 28.08C167.201 27.7387 167.095 27.4187 167.009 27.12C166.967 26.9067 166.945 26.6507 166.945 26.352C166.945 26.1813 166.924 26.0533 166.881 25.968C166.881 25.84 166.881 25.6907 166.881 25.52C166.881 25.3493 166.86 25.1573 166.817 24.944C166.775 24.7307 166.775 24.5387 166.817 24.368V23.152C166.817 22.9387 166.817 22.7467 166.817 22.576C166.817 22.3627 166.839 22.2133 166.881 22.128C166.967 21.744 167.009 21.552 167.009 21.552C167.009 21.5093 167.031 21.296 167.073 20.912C167.116 20.4 167.116 19.8667 167.073 19.312C167.073 18.7573 167.095 18.3093 167.137 17.968C167.265 16.688 167.031 16.048 166.433 16.048C166.177 16.048 165.836 16.1547 165.409 16.368C165.367 16.4533 165.281 16.5173 165.153 16.56C165.025 16.56 164.876 16.624 164.705 16.752L164.449 16.944C164.449 16.9867 164.385 17.008 164.257 17.008C164.172 16.9653 164.151 16.9867 164.193 17.072C164.193 17.4133 164.087 17.4987 163.873 17.328L163.233 17.84L163.041 18.096L162.977 18.16C162.807 18.3307 162.657 18.416 162.529 18.416L162.273 18.608C162.273 18.6507 162.231 18.736 162.145 18.864C162.103 18.9493 162.017 18.9707 161.889 18.928L161.569 19.248C161.399 19.504 161.249 19.6533 161.121 19.696C161.036 19.7387 160.929 19.7813 160.801 19.824L160.225 20.464L159.969 20.528C159.969 20.6987 159.777 20.9547 159.393 21.296C159.052 21.6373 158.839 21.872 158.753 22C158.625 22.128 158.497 22.192 158.369 22.192C158.284 22.192 158.241 22.1493 158.241 22.064C158.241 21.8933 158.327 21.7227 158.497 21.552C158.668 21.3813 158.924 21.0613 159.265 20.592C159.649 20.1227 159.863 19.888 159.905 19.888C160.119 19.6747 160.268 19.4613 160.353 19.248C160.439 19.0347 160.588 18.8427 160.801 18.672C160.801 18.7573 160.844 18.8 160.929 18.8C161.015 18.8 161.1 18.6933 161.185 18.48C161.313 18.224 161.399 18.1173 161.441 18.16L162.593 17.2C162.551 17.1573 162.657 17.072 162.913 16.944C163.084 16.8587 163.191 16.816 163.233 16.816C163.276 16.816 163.383 16.688 163.553 16.432L164.001 16.112C164.044 16.0267 164.087 16.0267 164.129 16.112C164.172 16.1973 164.236 16.24 164.321 16.24L164.449 15.792C164.535 15.6213 164.684 15.4933 164.897 15.408C165.111 15.3227 165.324 15.216 165.537 15.088C165.751 14.8747 165.964 14.6827 166.177 14.512C166.391 14.3413 166.561 14.2773 166.689 14.32H166.945C167.5 14.1067 167.991 14 168.417 14C169.1 14 169.633 14.256 170.017 14.768C170.188 14.9813 170.295 15.216 170.337 15.472C170.38 15.5147 170.38 15.5787 170.337 15.664C170.337 15.7067 170.359 15.7707 170.401 15.856C170.444 15.9413 170.529 16.048 170.657 16.176C170.785 16.2613 170.849 16.368 170.849 16.496V16.624C170.849 16.752 170.764 16.9013 170.593 17.072C170.807 17.2427 170.892 17.3493 170.849 17.392C170.807 17.392 170.764 17.456 170.721 17.584L170.657 18.48C170.615 18.7787 170.529 19.0133 170.401 19.184C170.316 19.312 170.231 19.5467 170.145 19.888C170.316 20.144 170.316 20.2933 170.145 20.336C170.145 20.3787 170.103 20.4 170.017 20.4L169.953 20.656C170.039 20.8267 170.081 20.912 170.081 20.912L169.889 21.296C169.889 21.296 169.953 21.296 170.081 21.296C169.996 21.3813 169.911 21.552 169.825 21.808C169.783 22.0213 169.74 22.192 169.697 22.32C169.655 22.5333 169.569 22.64 169.441 22.64C169.313 22.64 169.271 22.7467 169.313 22.96C169.356 23.0027 169.377 23.152 169.377 23.408C169.377 23.6213 169.335 23.728 169.249 23.728L169.121 24.496C169.121 24.5387 169.121 24.5813 169.121 24.624C169.164 24.6667 169.185 24.7093 169.185 24.752C169.185 24.9653 169.143 25.1787 169.057 25.392C169.015 25.5627 168.951 25.7547 168.865 25.968C168.823 26.1813 168.78 26.416 168.737 26.672C168.737 26.8853 168.737 27.0987 168.737 27.312C168.737 27.4827 168.737 27.6747 168.737 27.888C168.78 28.0587 168.823 28.2293 168.865 28.4C168.908 28.4427 168.972 28.5707 169.057 28.784C169.185 28.9973 169.249 29.1253 169.249 29.168C169.335 29.2533 169.399 29.296 169.441 29.296C169.527 29.3387 169.655 29.36 169.825 29.36C170.039 29.3173 170.188 29.3387 170.273 29.424C170.657 29.4667 171.148 29.2747 171.745 28.848C172.385 28.3787 172.961 27.8667 173.473 27.312C173.601 27.184 173.729 27.12 173.857 27.12C173.985 27.12 174.071 27.184 174.113 27.312C174.156 27.44 174.113 27.6107 173.985 27.824C173.26 28.8053 172.577 29.4667 171.937 29.808C171.34 30.1493 170.785 30.32 170.273 30.32ZM34.375 42.3594C34.9219 42.4219 35.3828 42.4688 35.7578 42.5C36.1328 42.5156 36.4297 42.5312 36.6484 42.5469C36.9141 42.5625 37.125 42.5703 37.2812 42.5703C37.5469 42.5703 37.8516 42.5625 38.1953 42.5469C38.4922 42.5312 38.8359 42.5078 39.2266 42.4766C39.6328 42.4297 40.0703 42.3594 40.5391 42.2656C40.3203 42.5 40.1406 42.7266 40 42.9453C39.8594 43.1484 39.75 43.3359 39.6719 43.5078C39.5781 43.6953 39.5 43.8672 39.4375 44.0234C39.375 44.2266 39.3047 44.5391 39.2266 44.9609C39.1484 45.3203 39.0625 45.8281 38.9688 46.4844C38.8906 47.1406 38.7891 48 38.6641 49.0625C39.1953 49.0781 39.6562 49.0859 40.0469 49.0859C40.4375 49.0703 40.7656 49.0625 41.0312 49.0625H41.8047C42.0234 49.0469 42.2734 49.0312 42.5547 49.0156C43.0234 49 43.7344 48.9531 44.6875 48.875C44.7656 48.1562 44.8047 47.5391 44.8047 47.0234C44.8203 46.4922 44.8125 46.0469 44.7812 45.6875C44.75 45.2812 44.7031 44.9375 44.6406 44.6562C44.5938 44.5 44.5234 44.3125 44.4297 44.0938C44.3516 43.9062 44.2422 43.6797 44.1016 43.4141C43.9766 43.1328 43.8047 42.7969 43.5859 42.4062C43.9922 42.4688 44.3516 42.5156 44.6641 42.5469C44.9922 42.5625 45.2656 42.5781 45.4844 42.5938C45.7344 42.6094 45.9453 42.6172 46.1172 42.6172C46.2891 42.6172 46.5156 42.6094 46.7969 42.5938C47.0312 42.5781 47.3203 42.5703 47.6641 42.5703C48.0078 42.5547 48.4297 42.5312 48.9297 42.5C48.8047 42.7188 48.6953 42.9453 48.6016 43.1797C48.5078 43.4141 48.4297 43.625 48.3672 43.8125C48.3047 44.0312 48.2422 44.25 48.1797 44.4688C48.1016 44.7969 48.0312 45.2734 47.9688 45.8984C47.9219 46.5234 47.875 47.2188 47.8281 47.9844C47.7969 48.75 47.7656 49.5469 47.7344 50.375C47.7188 51.2031 47.7031 51.9844 47.6875 52.7188C47.6875 53.4531 47.6953 54.1094 47.7109 54.6875C47.7266 55.25 47.7578 55.6484 47.8047 55.8828C47.8516 56.1641 47.9297 56.4531 48.0391 56.75C48.1328 57.0156 48.2578 57.3047 48.4141 57.6172C48.5703 57.9141 48.7734 58.1953 49.0234 58.4609L43.375 58.8828C43.6094 58.6641 43.7969 58.4531 43.9375 58.25C44.0781 58.0312 44.1875 57.8438 44.2656 57.6875C44.3438 57.5156 44.3984 57.3516 44.4297 57.1953C44.4453 57.0078 44.4688 56.6797 44.5 56.2109C44.5312 55.8203 44.5625 55.2656 44.5938 54.5469C44.625 53.8281 44.6562 52.875 44.6875 51.6875C44.4688 51.6875 44.2031 51.6953 43.8906 51.7109C43.5938 51.7109 43.3125 51.7188 43.0469 51.7344C42.7344 51.75 42.4062 51.7578 42.0625 51.7578C41.7188 51.7734 41.3594 51.7891 40.9844 51.8047C40.6719 51.8359 40.3203 51.8672 39.9297 51.8984C39.5547 51.9141 39.1797 51.9375 38.8047 51.9688C38.7734 52.625 38.7734 53.2031 38.8047 53.7031C38.8359 54.1875 38.8828 54.6016 38.9453 54.9453C39.0078 55.3516 39.0859 55.7031 39.1797 56C39.2734 56.2812 39.375 56.5625 39.4844 56.8438C39.5781 57.0938 39.6875 57.3594 39.8125 57.6406C39.9531 57.9219 40.0938 58.1719 40.2344 58.3906C39.9375 58.3594 39.6641 58.3359 39.4141 58.3203C39.1641 58.2891 38.9453 58.2578 38.7578 58.2266C38.5391 58.2109 38.3281 58.1953 38.125 58.1797C37.9219 58.1797 37.6797 58.1719 37.3984 58.1562C37.1484 58.1406 36.8359 58.1328 36.4609 58.1328C36.0859 58.1172 35.6484 58.1094 35.1484 58.1094C35.4453 57.8125 35.6797 57.5234 35.8516 57.2422C36.0391 56.9453 36.1719 56.6797 36.25 56.4453C36.3438 56.1641 36.4062 55.9062 36.4375 55.6719C36.4531 55.4688 36.4609 55.0859 36.4609 54.5234C36.4766 53.9609 36.4766 53.3203 36.4609 52.6016C36.4609 51.8672 36.4531 51.1016 36.4375 50.3047C36.4219 49.4922 36.3984 48.7344 36.3672 48.0312C36.3516 47.3281 36.3281 46.7266 36.2969 46.2266C36.2812 45.7109 36.2656 45.3906 36.25 45.2656C36.1719 44.9844 36.0547 44.6797 35.8984 44.3516C35.7578 44.0859 35.5703 43.7812 35.3359 43.4375C35.1016 43.0781 34.7812 42.7188 34.375 42.3594ZM51.3672 49.5078C51.4453 49.4141 51.4922 49.2422 51.5078 48.9922C51.5391 48.7266 51.6016 48.4297 51.6953 48.1016C51.8047 47.7734 51.9844 47.4297 52.2344 47.0703C52.4844 46.7109 52.8906 46.375 53.4531 46.0625C54 45.75 54.5312 45.5625 55.0469 45.5C55.5625 45.4375 56.0547 45.4609 56.5234 45.5703C56.9922 45.6797 57.4297 45.8516 57.8359 46.0859C58.2578 46.3203 58.6406 46.5781 58.9844 46.8594C59.2188 47.0469 59.4062 47.3203 59.5469 47.6797C59.6875 48.0234 59.7969 48.4141 59.875 48.8516C59.9531 49.2891 60.0078 49.75 60.0391 50.2344C60.0859 50.7031 60.1172 51.1641 60.1328 51.6172C60.1484 52.0547 60.1562 52.4609 60.1562 52.8359C60.1719 53.1953 60.2031 53.4922 60.25 53.7266C60.3125 54.0703 60.4219 54.3672 60.5781 54.6172C60.7344 54.8516 60.9062 55.0547 61.0938 55.2266C61.2812 55.3828 61.4688 55.5078 61.6562 55.6016C61.8438 55.6953 62.0078 55.7656 62.1484 55.8125C62.2422 55.8594 62.3281 55.8906 62.4062 55.9062C62.5625 55.9688 62.6719 55.9688 62.7344 55.9062C62.6406 56.125 62.5547 56.3125 62.4766 56.4688C62.3984 56.625 62.3359 56.7578 62.2891 56.8672C62.2266 56.9922 62.1719 57.0938 62.125 57.1719C62.0781 57.2656 62.0234 57.3516 61.9609 57.4297C61.9141 57.5078 61.8516 57.5938 61.7734 57.6875C61.6953 57.7812 61.6172 57.8828 61.5391 57.9922C61.3359 57.9141 61.1406 57.8203 60.9531 57.7109C60.7812 57.6016 60.625 57.5 60.4844 57.4062C60.3125 57.2969 60.1562 57.1875 60.0156 57.0781C59.875 56.9688 59.7422 56.8438 59.6172 56.7031C59.5078 56.5781 59.3906 56.4453 59.2656 56.3047C59.1562 56.1641 59.0625 56.0078 58.9844 55.8359C58.8906 56.0391 58.6641 56.3281 58.3047 56.7031C57.9609 57.0781 57.5078 57.4219 56.9453 57.7344C56.3828 58.0312 55.7266 58.2422 54.9766 58.3672C54.2422 58.4922 53.4297 58.4062 52.5391 58.1094C52.1484 57.9844 51.7812 57.8047 51.4375 57.5703C51.0938 57.3203 50.7969 57.0234 50.5469 56.6797C50.3125 56.3359 50.1406 55.9453 50.0312 55.5078C49.9375 55.0547 49.9453 54.5547 50.0547 54.0078C50.1641 53.4609 50.3594 53 50.6406 52.625C50.9219 52.25 51.2578 51.9453 51.6484 51.7109C52.0391 51.4766 52.4766 51.2969 52.9609 51.1719C53.4453 51.0469 53.9453 50.9609 54.4609 50.9141C54.8672 50.8984 55.2734 50.9219 55.6797 50.9844C56.0234 51.0469 56.3828 51.1641 56.7578 51.3359C57.1328 51.4922 57.4531 51.7344 57.7188 52.0625C57.7031 51.2344 57.6719 50.5781 57.625 50.0938C57.5938 49.5938 57.5625 49.2109 57.5312 48.9453C57.4688 48.6328 57.4141 48.4141 57.3672 48.2891C57.2891 48.1797 57.2031 48.0547 57.1094 47.9141C57.0312 47.7734 56.9297 47.6484 56.8047 47.5391C56.6797 47.4141 56.5234 47.3125 56.3359 47.2344C56.1484 47.1562 55.9297 47.125 55.6797 47.1406C55.4141 47.1562 55.2031 47.2266 55.0469 47.3516C54.8906 47.4766 54.7656 47.625 54.6719 47.7969C54.5938 47.9531 54.5469 48.125 54.5312 48.3125C54.5156 48.5 54.5234 48.6641 54.5547 48.8047C54.5859 48.8984 54.6328 49 54.6953 49.1094C54.7578 49.2031 54.8438 49.3047 54.9531 49.4141C55.0625 49.5234 55.2109 49.6172 55.3984 49.6953C55.0391 49.7422 54.7188 49.7812 54.4375 49.8125C54.1562 49.8281 53.9141 49.8516 53.7109 49.8828C53.4766 49.9141 53.2734 49.9375 53.1016 49.9531C52.9297 49.9688 52.7266 50 52.4922 50.0469C52.2891 50.0781 52.0391 50.1172 51.7422 50.1641C51.4453 50.2109 51.1016 50.2734 50.7109 50.3516C50.8047 50.2422 50.8906 50.1406 50.9688 50.0469C51.0469 49.9375 51.1172 49.8438 51.1797 49.7656C51.2422 49.6719 51.3047 49.5859 51.3672 49.5078ZM54.8828 52.2969C54.6016 52.3125 54.3203 52.3828 54.0391 52.5078C53.7578 52.6172 53.5078 52.7812 53.2891 53C53.0703 53.2031 52.8828 53.4453 52.7266 53.7266C52.5859 53.9922 52.5156 54.2891 52.5156 54.6172C52.5156 54.9453 52.5938 55.2344 52.75 55.4844C52.9219 55.7188 53.1406 55.9141 53.4062 56.0703C53.6875 56.2266 53.9844 56.3203 54.2969 56.3516C54.625 56.3828 54.9453 56.3516 55.2578 56.2578C55.5547 56.1484 55.8359 55.9766 56.1016 55.7422C56.3672 55.4922 56.5938 55.2266 56.7812 54.9453C56.9688 54.6484 57.1016 54.3594 57.1797 54.0781C57.2578 53.7812 57.2656 53.5391 57.2031 53.3516C57.0781 52.9453 56.7969 52.6641 56.3594 52.5078C55.9219 52.3359 55.4297 52.2656 54.8828 52.2969ZM62.2656 47.7734C62.5625 47.7891 62.8281 47.7969 63.0625 47.7969C63.3125 47.7812 63.5234 47.7656 63.6953 47.75C63.8984 47.7344 64.0781 47.7188 64.2344 47.7031C64.4688 47.6719 64.7109 47.6328 64.9609 47.5859C65.1797 47.5547 65.4062 47.5156 65.6406 47.4688C65.8906 47.4062 66.1328 47.3359 66.3672 47.2578C66.2734 47.4922 66.1953 47.6953 66.1328 47.8672C66.0703 48.0391 66.0234 48.1875 65.9922 48.3125C65.9453 48.4531 65.9219 48.5703 65.9219 48.6641C65.9062 48.7734 65.8984 48.9062 65.8984 49.0625C65.8828 49.3281 65.8828 49.7578 65.8984 50.3516C66.7109 49.6484 67.3906 49.1016 67.9375 48.7109C68.5 48.3203 68.9453 48.0156 69.2734 47.7969C69.6641 47.5469 69.9688 47.3828 70.1875 47.3047C70.7656 47.2109 71.2734 47.3438 71.7109 47.7031C71.8984 47.8594 72.0781 48.0703 72.25 48.3359C72.4219 48.5859 72.5703 48.9219 72.6953 49.3438C72.8203 49.7656 72.9141 50.2734 72.9766 50.8672C73.0391 51.4453 73.0469 52.1406 73 52.9531C72.6719 52.9844 72.375 53.0156 72.1094 53.0469C71.8594 53.0781 71.6484 53.1016 71.4766 53.1172C71.2734 53.1484 71.0859 53.1641 70.9141 53.1641L70.2812 53.2344C70.0625 53.2656 69.7891 53.2969 69.4609 53.3281C69.1484 53.3438 68.7656 53.375 68.3125 53.4219C68.9688 52.8906 69.3906 52.4297 69.5781 52.0391C69.7812 51.6328 69.8672 51.2969 69.8359 51.0312C69.8047 50.7344 69.6641 50.4766 69.4141 50.2578C69.1172 50.0859 68.7969 50.0234 68.4531 50.0703C68.1562 50.1016 67.8125 50.2344 67.4219 50.4688C67.0312 50.7031 66.6172 51.1406 66.1797 51.7812C66.2109 52.7812 66.2422 53.6094 66.2734 54.2656C66.3203 54.9219 66.3594 55.4531 66.3906 55.8594C66.4375 56.3281 66.4766 56.6953 66.5078 56.9609C66.5547 57.1953 66.6484 57.4453 66.7891 57.7109C66.8984 57.9297 67.0547 58.1719 67.2578 58.4375C67.4609 58.7031 67.7266 58.9688 68.0547 59.2344C67.3672 59.2031 66.8047 59.2031 66.3672 59.2344C66.1016 59.25 65.8672 59.2656 65.6641 59.2812C65.4453 59.3125 65.2109 59.3438 64.9609 59.375C64.7422 59.4062 64.4844 59.4375 64.1875 59.4688C63.9062 59.5156 63.5938 59.5625 63.25 59.6094C63.375 59.4375 63.4766 59.2344 63.5547 59C63.6328 58.7812 63.6953 58.5703 63.7422 58.3672C63.8047 58.1328 63.8516 57.8906 63.8828 57.6406C63.8984 57.4219 63.9062 57.0938 63.9062 56.6562C63.9219 56.2188 63.9141 55.7266 63.8828 55.1797C63.8672 54.6172 63.8438 54.0391 63.8125 53.4453C63.7812 52.8359 63.7422 52.2656 63.6953 51.7344C63.6484 51.2031 63.5938 50.7422 63.5312 50.3516C63.4844 49.9453 63.4297 49.6641 63.3672 49.5078C63.2891 49.3203 63.1953 49.1328 63.0859 48.9453C62.9922 48.7734 62.875 48.5938 62.7344 48.4062C62.5938 48.2031 62.4375 47.9922 62.2656 47.7734ZM85.4922 41.0469C85.7891 41.0625 86.1094 41.0703 86.4531 41.0703C86.75 41.0703 87.0859 41.0781 87.4609 41.0938C87.8516 41.0938 88.2578 41.0781 88.6797 41.0469C88.3047 41.2188 87.9766 41.4688 87.6953 41.7969C87.4141 42.125 87.1875 42.4531 87.0156 42.7812C86.7969 43.1719 86.6172 43.5781 86.4766 44C86.3984 44.25 86.3359 44.6953 86.2891 45.3359C86.2422 45.9609 86.2031 46.6953 86.1719 47.5391C86.1562 48.3828 86.1484 49.2734 86.1484 50.2109C86.1484 51.1484 86.1562 52.0469 86.1719 52.9062C86.1875 53.75 86.2109 54.5 86.2422 55.1562C86.2734 55.8125 86.3125 56.2734 86.3594 56.5391C86.4219 56.8516 86.5 57.1484 86.5938 57.4297C86.6719 57.6797 86.7734 57.9375 86.8984 58.2031C87.0234 58.4531 87.1797 58.6562 87.3672 58.8125L84.9766 59.8906C84.8516 59.7188 84.75 59.5391 84.6719 59.3516C84.5938 59.1797 84.5312 59.0234 84.4844 58.8828C84.4219 58.7109 84.3828 58.5547 84.3672 58.4141C84.3359 58.2266 84.3047 58.0234 84.2734 57.8047C84.2422 57.5703 84.2031 57.3516 84.1562 57.1484C84.125 56.9297 84.1016 56.75 84.0859 56.6094C84.0703 56.4688 84.0703 56.3828 84.0859 56.3516C84.1016 56.3203 84.0078 56.4609 83.8047 56.7734C83.6016 57.0703 83.2969 57.4219 82.8906 57.8281C82.5 58.2188 82.0156 58.6016 81.4375 58.9766C80.8594 59.3359 80.2109 59.5625 79.4922 59.6562C78.7578 59.75 78.0781 59.6094 77.4531 59.2344C76.8438 58.8594 76.3203 58.3359 75.8828 57.6641C75.4453 56.9766 75.1094 56.1875 74.875 55.2969C74.6562 54.3906 74.5703 53.4688 74.6172 52.5312C74.6484 51.9062 74.7891 51.3516 75.0391 50.8672C75.2891 50.3672 75.6016 49.9375 75.9766 49.5781C76.3672 49.2031 76.7891 48.8906 77.2422 48.6406C77.7109 48.375 78.1641 48.1562 78.6016 47.9844C79.0547 47.8125 79.4766 47.6875 79.8672 47.6094C80.2578 47.5312 80.5703 47.4766 80.8047 47.4453C81.0859 47.4297 81.4062 47.4766 81.7656 47.5859C82.0781 47.6797 82.4375 47.8359 82.8438 48.0547C83.2656 48.2734 83.7344 48.6016 84.25 49.0391C84.1562 47.4766 84.0703 46.2266 83.9922 45.2891C83.9141 44.3359 83.8359 43.6094 83.7578 43.1094C83.6797 42.5156 83.6094 42.1094 83.5469 41.8906C83.4688 41.7344 83.3672 41.5781 83.2422 41.4219C83.1328 41.2969 82.9922 41.1719 82.8203 41.0469C82.6641 40.9062 82.4766 40.7969 82.2578 40.7188C82.6641 40.7969 83.0547 40.8516 83.4297 40.8828C83.8047 40.9141 84.1484 40.9453 84.4609 40.9766C84.8203 41.0078 85.1641 41.0312 85.4922 41.0469ZM79.6094 49.7891C79.3125 49.8984 79.0703 50.0859 78.8828 50.3516C78.7109 50.6172 78.5703 50.9375 78.4609 51.3125C78.3516 51.6719 78.2734 52.0625 78.2266 52.4844C78.1953 52.8906 78.1719 53.2891 78.1562 53.6797C78.1562 54.0547 78.1562 54.3984 78.1562 54.7109C78.1562 55.0234 78.1562 55.2578 78.1562 55.4141C78.1562 55.5078 78.1719 55.6797 78.2031 55.9297C78.25 56.1641 78.3438 56.4141 78.4844 56.6797C78.625 56.9297 78.8203 57.1562 79.0703 57.3594C79.3359 57.5625 79.6875 57.6641 80.125 57.6641C80.4844 57.6328 80.8672 57.5078 81.2734 57.2891C81.6328 57.1016 82.0391 56.8047 82.4922 56.3984C82.9609 55.9766 83.4609 55.375 83.9922 54.5938C83.9609 54.0938 83.9375 53.6797 83.9219 53.3516C83.9219 53.0234 83.9141 52.7578 83.8984 52.5547C83.8828 52.3203 83.875 52.1328 83.875 51.9922V51.6406C83.875 51.5469 83.875 51.4453 83.875 51.3359C83.875 51.2266 83.8828 51.125 83.8984 51.0312C83.4609 50.7188 83.0703 50.4531 82.7266 50.2344C82.3984 50 82.0703 49.8281 81.7422 49.7188C81.4297 49.5938 81.1016 49.5391 80.7578 49.5547C80.4297 49.5547 80.0469 49.6328 79.6094 49.7891ZM86.7578 48.1953C87.2266 48.2266 87.6406 48.25 88 48.2656C88.375 48.2812 88.6875 48.2969 88.9375 48.3125C89.2188 48.3281 89.4688 48.3359 89.6875 48.3359C89.9062 48.3359 90.1562 48.3281 90.4375 48.3125C90.6875 48.2969 90.9922 48.2734 91.3516 48.2422C91.7266 48.1953 92.1562 48.1328 92.6406 48.0547C92.2656 48.2891 91.9609 48.5078 91.7266 48.7109C91.5078 48.8984 91.3359 49.0703 91.2109 49.2266C91.0703 49.3984 90.9766 49.5547 90.9297 49.6953C90.8984 49.8203 90.8672 50.0703 90.8359 50.4453C90.8203 50.8047 90.8047 51.2266 90.7891 51.7109C90.7891 52.1797 90.7969 52.6797 90.8125 53.2109C90.8281 53.7422 90.8516 54.2266 90.8828 54.6641C90.9141 55.0859 90.9609 55.4453 91.0234 55.7422C91.0859 56.0234 91.1641 56.1562 91.2578 56.1406C91.3828 56.0312 91.5859 55.6641 91.8672 55.0391C91.9766 54.7734 92.1094 54.4375 92.2656 54.0312C92.4219 53.6094 92.6016 53.1016 92.8047 52.5078C93.0078 51.8984 93.2344 51.1875 93.4844 50.375C93.75 49.5625 94.0469 48.6172 94.375 47.5391H96.4141C96.4766 48.6016 96.5469 49.5312 96.625 50.3281C96.7031 51.125 96.7812 51.8203 96.8594 52.4141C96.9375 52.9922 97.0078 53.4844 97.0703 53.8906C97.1484 54.2812 97.2266 54.6016 97.3047 54.8516C97.4766 55.4453 97.6484 55.7656 97.8203 55.8125C97.9609 55.7812 98.1094 55.6016 98.2656 55.2734C98.4375 54.9453 98.5938 54.5391 98.7344 54.0547C98.8906 53.5703 99.0312 53.0469 99.1562 52.4844C99.2812 51.9062 99.3906 51.3672 99.4844 50.8672C99.5781 50.3672 99.6406 49.9297 99.6719 49.5547C99.7031 49.1797 99.7031 48.9453 99.6719 48.8516C99.625 48.7578 99.5312 48.625 99.3906 48.4531C99.2656 48.3125 99.0938 48.1406 98.875 47.9375C98.6719 47.7344 98.3906 47.4922 98.0312 47.2109C98.4688 47.2891 98.8828 47.3438 99.2734 47.375C99.6797 47.3906 100.039 47.4062 100.352 47.4219C100.711 47.4375 101.039 47.4375 101.336 47.4219C101.648 47.4219 102.031 47.4141 102.484 47.3984C102.875 47.3828 103.359 47.375 103.938 47.375C104.531 47.375 105.227 47.3594 106.023 47.3281C105.32 47.5469 104.758 47.7578 104.336 47.9609C103.93 48.1484 103.617 48.3281 103.398 48.5C103.133 48.6875 102.945 48.8672 102.836 49.0391C102.727 49.2734 102.555 49.7656 102.32 50.5156C102.227 50.8281 102.109 51.2188 101.969 51.6875C101.828 52.1406 101.664 52.6797 101.477 53.3047C101.289 53.9297 101.078 54.6562 100.844 55.4844C100.609 56.2969 100.344 57.2266 100.047 58.2734C99.875 58.2422 99.6953 58.2266 99.5078 58.2266C99.3359 58.2109 99.1719 58.2031 99.0156 58.2031H98.4766C98.2891 58.2188 98.0859 58.2344 97.8672 58.25C97.6797 58.2656 97.4609 58.2891 97.2109 58.3203C96.9609 58.3516 96.6875 58.3906 96.3906 58.4375L94.9844 52.7422L92.6875 58.4375L90.0625 58.3672C89.7344 56.6016 89.4688 55.1953 89.2656 54.1484C89.0781 53.0859 88.9219 52.2734 88.7969 51.7109C88.6562 51.0547 88.5625 50.5938 88.5156 50.3281C88.4375 50.0469 88.3203 49.7734 88.1641 49.5078C88.0391 49.2891 87.8594 49.0625 87.625 48.8281C87.3906 48.5781 87.1016 48.3672 86.7578 48.1953ZM105.367 49.5078C105.445 49.4141 105.492 49.2422 105.508 48.9922C105.539 48.7266 105.602 48.4297 105.695 48.1016C105.805 47.7734 105.984 47.4297 106.234 47.0703C106.484 46.7109 106.891 46.375 107.453 46.0625C108 45.75 108.531 45.5625 109.047 45.5C109.562 45.4375 110.055 45.4609 110.523 45.5703C110.992 45.6797 111.43 45.8516 111.836 46.0859C112.258 46.3203 112.641 46.5781 112.984 46.8594C113.219 47.0469 113.406 47.3203 113.547 47.6797C113.688 48.0234 113.797 48.4141 113.875 48.8516C113.953 49.2891 114.008 49.75 114.039 50.2344C114.086 50.7031 114.117 51.1641 114.133 51.6172C114.148 52.0547 114.156 52.4609 114.156 52.8359C114.172 53.1953 114.203 53.4922 114.25 53.7266C114.312 54.0703 114.422 54.3672 114.578 54.6172C114.734 54.8516 114.906 55.0547 115.094 55.2266C115.281 55.3828 115.469 55.5078 115.656 55.6016C115.844 55.6953 116.008 55.7656 116.148 55.8125C116.242 55.8594 116.328 55.8906 116.406 55.9062C116.562 55.9688 116.672 55.9688 116.734 55.9062C116.641 56.125 116.555 56.3125 116.477 56.4688C116.398 56.625 116.336 56.7578 116.289 56.8672C116.227 56.9922 116.172 57.0938 116.125 57.1719C116.078 57.2656 116.023 57.3516 115.961 57.4297C115.914 57.5078 115.852 57.5938 115.773 57.6875C115.695 57.7812 115.617 57.8828 115.539 57.9922C115.336 57.9141 115.141 57.8203 114.953 57.7109C114.781 57.6016 114.625 57.5 114.484 57.4062C114.312 57.2969 114.156 57.1875 114.016 57.0781C113.875 56.9688 113.742 56.8438 113.617 56.7031C113.508 56.5781 113.391 56.4453 113.266 56.3047C113.156 56.1641 113.062 56.0078 112.984 55.8359C112.891 56.0391 112.664 56.3281 112.305 56.7031C111.961 57.0781 111.508 57.4219 110.945 57.7344C110.383 58.0312 109.727 58.2422 108.977 58.3672C108.242 58.4922 107.43 58.4062 106.539 58.1094C106.148 57.9844 105.781 57.8047 105.438 57.5703C105.094 57.3203 104.797 57.0234 104.547 56.6797C104.312 56.3359 104.141 55.9453 104.031 55.5078C103.938 55.0547 103.945 54.5547 104.055 54.0078C104.164 53.4609 104.359 53 104.641 52.625C104.922 52.25 105.258 51.9453 105.648 51.7109C106.039 51.4766 106.477 51.2969 106.961 51.1719C107.445 51.0469 107.945 50.9609 108.461 50.9141C108.867 50.8984 109.273 50.9219 109.68 50.9844C110.023 51.0469 110.383 51.1641 110.758 51.3359C111.133 51.4922 111.453 51.7344 111.719 52.0625C111.703 51.2344 111.672 50.5781 111.625 50.0938C111.594 49.5938 111.562 49.2109 111.531 48.9453C111.469 48.6328 111.414 48.4141 111.367 48.2891C111.289 48.1797 111.203 48.0547 111.109 47.9141C111.031 47.7734 110.93 47.6484 110.805 47.5391C110.68 47.4141 110.523 47.3125 110.336 47.2344C110.148 47.1562 109.93 47.125 109.68 47.1406C109.414 47.1562 109.203 47.2266 109.047 47.3516C108.891 47.4766 108.766 47.625 108.672 47.7969C108.594 47.9531 108.547 48.125 108.531 48.3125C108.516 48.5 108.523 48.6641 108.555 48.8047C108.586 48.8984 108.633 49 108.695 49.1094C108.758 49.2031 108.844 49.3047 108.953 49.4141C109.062 49.5234 109.211 49.6172 109.398 49.6953C109.039 49.7422 108.719 49.7812 108.438 49.8125C108.156 49.8281 107.914 49.8516 107.711 49.8828C107.477 49.9141 107.273 49.9375 107.102 49.9531C106.93 49.9688 106.727 50 106.492 50.0469C106.289 50.0781 106.039 50.1172 105.742 50.1641C105.445 50.2109 105.102 50.2734 104.711 50.3516C104.805 50.2422 104.891 50.1406 104.969 50.0469C105.047 49.9375 105.117 49.8438 105.18 49.7656C105.242 49.6719 105.305 49.5859 105.367 49.5078ZM108.883 52.2969C108.602 52.3125 108.32 52.3828 108.039 52.5078C107.758 52.6172 107.508 52.7812 107.289 53C107.07 53.2031 106.883 53.4453 106.727 53.7266C106.586 53.9922 106.516 54.2891 106.516 54.6172C106.516 54.9453 106.594 55.2344 106.75 55.4844C106.922 55.7188 107.141 55.9141 107.406 56.0703C107.688 56.2266 107.984 56.3203 108.297 56.3516C108.625 56.3828 108.945 56.3516 109.258 56.2578C109.555 56.1484 109.836 55.9766 110.102 55.7422C110.367 55.4922 110.594 55.2266 110.781 54.9453C110.969 54.6484 111.102 54.3594 111.18 54.0781C111.258 53.7812 111.266 53.5391 111.203 53.3516C111.078 52.9453 110.797 52.6641 110.359 52.5078C109.922 52.3359 109.43 52.2656 108.883 52.2969ZM116.266 47.7734C116.562 47.7891 116.828 47.7969 117.062 47.7969C117.312 47.7812 117.523 47.7656 117.695 47.75C117.898 47.7344 118.078 47.7188 118.234 47.7031C118.469 47.6719 118.711 47.6328 118.961 47.5859C119.18 47.5547 119.406 47.5156 119.641 47.4688C119.891 47.4062 120.133 47.3359 120.367 47.2578C120.273 47.4922 120.195 47.6953 120.133 47.8672C120.07 48.0391 120.023 48.1875 119.992 48.3125C119.945 48.4531 119.922 48.5703 119.922 48.6641C119.906 48.7734 119.898 48.9062 119.898 49.0625C119.883 49.3281 119.883 49.7578 119.898 50.3516C120.711 49.6484 121.391 49.1016 121.938 48.7109C122.5 48.3203 122.945 48.0156 123.273 47.7969C123.664 47.5469 123.969 47.3828 124.188 47.3047C124.766 47.2109 125.273 47.3438 125.711 47.7031C125.898 47.8594 126.078 48.0703 126.25 48.3359C126.422 48.5859 126.57 48.9219 126.695 49.3438C126.82 49.7656 126.914 50.2734 126.977 50.8672C127.039 51.4453 127.047 52.1406 127 52.9531C126.672 52.9844 126.375 53.0156 126.109 53.0469C125.859 53.0781 125.648 53.1016 125.477 53.1172C125.273 53.1484 125.086 53.1641 124.914 53.1641L124.281 53.2344C124.062 53.2656 123.789 53.2969 123.461 53.3281C123.148 53.3438 122.766 53.375 122.312 53.4219C122.969 52.8906 123.391 52.4297 123.578 52.0391C123.781 51.6328 123.867 51.2969 123.836 51.0312C123.805 50.7344 123.664 50.4766 123.414 50.2578C123.117 50.0859 122.797 50.0234 122.453 50.0703C122.156 50.1016 121.812 50.2344 121.422 50.4688C121.031 50.7031 120.617 51.1406 120.18 51.7812C120.211 52.7812 120.242 53.6094 120.273 54.2656C120.32 54.9219 120.359 55.4531 120.391 55.8594C120.438 56.3281 120.477 56.6953 120.508 56.9609C120.555 57.1953 120.648 57.4453 120.789 57.7109C120.898 57.9297 121.055 58.1719 121.258 58.4375C121.461 58.7031 121.727 58.9688 122.055 59.2344C121.367 59.2031 120.805 59.2031 120.367 59.2344C120.102 59.25 119.867 59.2656 119.664 59.2812C119.445 59.3125 119.211 59.3438 118.961 59.375C118.742 59.4062 118.484 59.4375 118.188 59.4688C117.906 59.5156 117.594 59.5625 117.25 59.6094C117.375 59.4375 117.477 59.2344 117.555 59C117.633 58.7812 117.695 58.5703 117.742 58.3672C117.805 58.1328 117.852 57.8906 117.883 57.6406C117.898 57.4219 117.906 57.0938 117.906 56.6562C117.922 56.2188 117.914 55.7266 117.883 55.1797C117.867 54.6172 117.844 54.0391 117.812 53.4453C117.781 52.8359 117.742 52.2656 117.695 51.7344C117.648 51.2031 117.594 50.7422 117.531 50.3516C117.484 49.9453 117.43 49.6641 117.367 49.5078C117.289 49.3203 117.195 49.1328 117.086 48.9453C116.992 48.7734 116.875 48.5938 116.734 48.4062C116.594 48.2031 116.438 47.9922 116.266 47.7734ZM134.078 55.2266C134.516 55.2266 134.922 55.1797 135.297 55.0859C135.609 55.0078 135.906 54.8828 136.188 54.7109C136.484 54.5234 136.68 54.25 136.773 53.8906C137.086 53.9531 137.352 54.0078 137.57 54.0547C137.789 54.0859 137.977 54.1172 138.133 54.1484C138.305 54.1953 138.453 54.2266 138.578 54.2422C138.703 54.2734 138.852 54.3047 139.023 54.3359C139.18 54.3672 139.367 54.4062 139.586 54.4531C139.82 54.4844 140.094 54.5312 140.406 54.5938C140.172 54.5625 139.93 54.5859 139.68 54.6641C139.445 54.7422 139.219 54.8281 139 54.9219C138.75 55.0312 138.516 55.1641 138.297 55.3203C138.156 55.4141 137.992 55.5547 137.805 55.7422C137.633 55.9297 137.383 56.1094 137.055 56.2812C136.727 56.4531 136.289 56.6016 135.742 56.7266C135.211 56.8359 134.523 56.875 133.68 56.8438C132.664 56.8125 131.812 56.6328 131.125 56.3047C130.438 55.9609 129.883 55.5469 129.461 55.0625C129.039 54.5625 128.734 54.0234 128.547 53.4453C128.359 52.8672 128.258 52.3281 128.242 51.8281C128.227 51.3281 128.375 50.8047 128.688 50.2578C129 49.7109 129.438 49.2109 130 48.7578C130.578 48.3047 131.273 47.9375 132.086 47.6562C132.898 47.3594 133.789 47.2109 134.758 47.2109C135.32 47.2109 135.836 47.2812 136.305 47.4219C136.789 47.5469 137.227 47.7188 137.617 47.9375C138.023 48.1562 138.375 48.4062 138.672 48.6875C138.969 48.9531 139.219 49.2266 139.422 49.5078C139.625 49.8047 139.797 50.1172 139.938 50.4453C140.062 50.7266 140.164 51.0469 140.242 51.4062C140.32 51.7656 140.344 52.1328 140.312 52.5078C139.125 52.5391 138.164 52.5625 137.43 52.5781C136.711 52.5938 136.148 52.6016 135.742 52.6016H134.688H133.891C133.609 52.6016 133.242 52.6094 132.789 52.625C132.336 52.6406 131.781 52.6641 131.125 52.6953C131.203 53.3203 131.398 53.8047 131.711 54.1484C132.039 54.4766 132.383 54.7266 132.742 54.8984C133.148 55.0859 133.594 55.1953 134.078 55.2266ZM131.969 51.0078C132.469 51.0391 132.883 51.0625 133.211 51.0781C133.555 51.0938 133.836 51.1094 134.055 51.125C134.289 51.1406 134.477 51.1484 134.617 51.1484H135.203C135.594 51.1484 136.32 51.125 137.383 51.0781C137.336 50.3906 137.188 49.8672 136.938 49.5078C136.703 49.1484 136.453 48.8828 136.188 48.7109C135.875 48.5234 135.531 48.4141 135.156 48.3828C134.141 48.3984 133.383 48.6094 132.883 49.0156C132.398 49.4219 132.094 50.0859 131.969 51.0078Z" fill="#046DB2"/>
</svg>
