<svg width="23" height="23" viewBox="0 0 23 23" fill="none" xmlns="http://www.w3.org/2000/svg">
<path d="M18.7814 16.2708L17.4575 15.5304L17.1738 15.8715C18.9767 13.8008 19.9082 10.9757 19.3974 7.97318C18.6912 3.86133 15.2056 0.577767 10.9988 0.0748794C4.64347 -0.694243 -0.705205 4.57129 0.0760617 10.8278C0.58689 14.9692 3.9223 18.4007 8.09907 19.0959C11.149 19.5988 14.0187 18.6817 16.1221 16.9068L15.777 17.185L16.5277 18.4894L20.2843 22.1862C20.9003 22.7927 21.0356 23.6653 22.538 22.1862C23.154 21.5798 23.154 21.3136 22.538 20.7071L18.7814 16.2708ZM9.76677 16.2708C6.02571 16.2708 3.00581 13.2979 3.00581 9.61496C3.00581 5.93204 6.02571 2.95909 9.76677 2.95909C13.5078 2.95909 16.5277 5.93204 16.5277 9.61496C16.5277 13.2979 13.5078 16.2708 9.76677 16.2708Z" fill="#ADB7BA"/>
</svg>
